<svg xmlns="http://www.w3.org/2000/svg" width="35" height="35" viewBox="0 0 35 35">
  <path id="facebook" d="M25.49,7.989a17.5,17.5,0,1,0,17.5,17.5,17.519,17.519,0,0,0-17.5-17.5Zm4.946,11.047a.312.312,0,0,1-.312.312H28.134c-1.313,0-1.553.511-1.553,1.518v2.088h3.412a.312.312,0,0,1,.234.106.316.316,0,0,1,.076.246l-.486,3.76a.312.312,0,0,1-.31.272H26.582v9.335a.312.312,0,0,1-.312.312H22.387a.312.312,0,0,1-.312-.312V27.34H19.14a.312.312,0,0,1-.312-.312v-3.76a.312.312,0,0,1,.312-.312h2.935V20.5c0-3.259,1.972-5.283,5.148-5.283a27.154,27.154,0,0,1,2.942.151.312.312,0,0,1,.272.31Z" transform="translate(-7.99 -7.989)" fill="#231f20"/>
</svg>
