<svg id="グループ_2" data-name="グループ 2" xmlns="http://www.w3.org/2000/svg" width="35" height="35" viewBox="0 0 35 35">
  <g id="instagram">
    <path id="パス_1" data-name="パス 1" d="M20.02,7.59A3.006,3.006,0,0,0,18.3,5.867a5.022,5.022,0,0,0-1.685-.312c-.957-.044-1.244-.054-3.667-.054s-2.71.011-3.667.054a5.021,5.021,0,0,0-1.687.312A3.006,3.006,0,0,0,5.867,7.591a5.022,5.022,0,0,0-.312,1.685c-.044.957-.054,1.244-.054,3.667s.011,2.71.054,3.667A5.022,5.022,0,0,0,5.867,18.3,3.006,3.006,0,0,0,7.591,20.02a5.021,5.021,0,0,0,1.685.312c.957.044,1.244.054,3.667.054s2.71-.011,3.667-.054A5.021,5.021,0,0,0,18.3,20.02,3.006,3.006,0,0,0,20.02,18.3a5.021,5.021,0,0,0,.312-1.685c.044-.957.054-1.244.054-3.667s-.011-2.71-.054-3.667A5.021,5.021,0,0,0,20.02,7.59ZM12.943,17.605a4.662,4.662,0,1,1,4.662-4.662,4.662,4.662,0,0,1-4.662,4.662Zm4.845-8.418A1.089,1.089,0,1,1,18.878,8.1a1.089,1.089,0,0,1-1.089,1.089Z" transform="translate(4.557 4.557)"/>
    <circle id="楕円形_1" data-name="楕円形 1" cx="3.026" cy="3.026" r="3.026" transform="translate(14.474 14.474)"/>
    <path id="パス_2" data-name="パス 2" d="M17.5,0A17.5,17.5,0,1,0,35,17.5,17.5,17.5,0,0,0,17.5,0Zm9.06,21.259a6.69,6.69,0,0,1-.425,2.211,4.659,4.659,0,0,1-2.665,2.665,6.69,6.69,0,0,1-2.211.425c-.973.044-1.283.055-3.759.055s-2.785-.011-3.759-.055a6.69,6.69,0,0,1-2.211-.425A4.659,4.659,0,0,1,8.865,23.47a6.69,6.69,0,0,1-.425-2.211c-.044-.973-.055-1.283-.055-3.759s.011-2.785.055-3.759a6.69,6.69,0,0,1,.425-2.211A4.659,4.659,0,0,1,11.53,8.865a6.69,6.69,0,0,1,2.211-.425c.973-.044,1.283-.055,3.759-.055s2.785.011,3.759.055a6.69,6.69,0,0,1,2.211.425,4.659,4.659,0,0,1,2.665,2.665,6.69,6.69,0,0,1,.425,2.211c.044.973.055,1.283.055,3.759S26.6,20.285,26.56,21.259Z" transform="translate(0 0)"/>
  </g>
</svg>
