<svg xmlns="http://www.w3.org/2000/svg" width="35" height="35" viewBox="0 0 35 35">
  <path id="linkedin" d="M24.373,19.251H24.4v-.042Zm0,0H24.4v-.042Zm0,0H24.4v-.042Zm0,0H24.4v-.042Zm0,0H24.4v-.042Zm0,0H24.4v-.042Zm0,0H24.4v-.042Zm0,0H24.4v-.042Zm0,0H24.4v-.042Zm0,0H24.4v-.042Zm0,0H24.4v-.042Zm0,0H24.4v-.042Zm0,0H24.4v-.042Zm0,0H24.4v-.042Zm0,0H24.4v-.042Zm0,0H24.4v-.042ZM22.63,3.77a17.5,17.5,0,1,0,17.5,17.5,17.5,17.5,0,0,0-17.5-17.5ZM18.254,29.148a.3.3,0,0,1-.3.291H14.587a.291.291,0,0,1-.291-.291V17.817a.291.291,0,0,1,.291-.3h3.372a.3.3,0,0,1,.3.3Zm-2.1-13.139a2.115,2.115,0,1,1,1.5-.62,2.119,2.119,0,0,1-1.5.62Zm16.37,13.139a.3.3,0,0,1-.3.291H28.857a.291.291,0,0,1-.291-.291V23.059c0-1.6-.571-2.682-2-2.682a2.165,2.165,0,0,0-2.031,1.448,2.728,2.728,0,0,0-.13.966v6.357a.3.3,0,0,1-.3.3H20.733a.291.291,0,0,1-.291-.3c0-1.617.042-9.468,0-11.315a.291.291,0,0,1,.291-.3H24.1a.291.291,0,0,1,.3.3v1.391a3.931,3.931,0,0,1,3.567-1.966c2.6,0,4.556,1.7,4.556,5.365ZM24.4,19.262V19.22l-.027.042Zm-.027,0H24.4V19.22Zm0,0H24.4V19.22Zm0,0H24.4V19.22Zm0,0H24.4V19.22Zm0,0H24.4V19.22Zm0,0H24.4V19.22Zm0,0H24.4V19.22Zm0,0H24.4V19.22Zm0,0H24.4V19.22Zm0,0H24.4V19.22Zm0,0H24.4V19.22Zm0,0H24.4V19.22Zm0,0H24.4V19.22Zm0,0H24.4V19.22Z" transform="translate(-5.13 -3.77)"/>
</svg>
