<svg xmlns="http://www.w3.org/2000/svg" width="35" height="35" viewBox="0 0 35 35">
  <path id="mail" d="M17.9.4A17.5,17.5,0,1,0,35.4,17.9,17.5,17.5,0,0,0,17.9.4ZM11.029,12.431H24.738c.727,0,.352.933-.044,1.172s-5.87,3.549-6.076,3.671a1.568,1.568,0,0,1-1.467,0L11.073,13.6C10.678,13.365,10.3,12.431,11.029,12.431ZM25.192,22.457a1.056,1.056,0,0,1-.809.911H11.418a1.056,1.056,0,0,1-.809-.911V15.809c0-.168,0-.385.314-.2l6.229,3.673a1.568,1.568,0,0,0,1.467,0l6.26-3.671c.317-.186.314.033.314.2Z" transform="translate(-0.4 -0.4)"/>
</svg>
