<svg id="グループ_1" data-name="グループ 1" xmlns="http://www.w3.org/2000/svg" width="35" height="35" viewBox="0 0 35 35">
  <g id="tiktok">
    <path id="パス_4" data-name="パス 4" d="M17.5,0A17.5,17.5,0,1,1,0,17.5,17.5,17.5,0,0,1,17.5,0Z" fill-rule="evenodd"/>
    <path id="パス_5" data-name="パス 5" d="M137.537,105.812c0,.27.075,4.156,3.815,4.4v3.005a6.184,6.184,0,0,1-3.82-1.473l-.005,5.846c.054,4.062-2.685,6.527-6.269,5.676-6.172-2.013-4.122-12,2.077-10.929v3.223c-2.561-.411-3.417,1.914-2.739,3.575a2.2,2.2,0,0,0,4.057-.293,6.035,6.035,0,0,0,.151-1.432V105.8l2.733.012Z" transform="translate(-116.944 -97.116)" fill="#fff" fill-rule="evenodd"/>
  </g>
</svg>
