<svg xmlns="http://www.w3.org/2000/svg" width="35" height="35" viewBox="0 0 35 35">
  <path id="twitter" d="M25.49,7.989a17.5,17.5,0,1,0,17.5,17.5,17.52,17.52,0,0,0-17.5-17.5ZM34.8,20.925A7.489,7.489,0,0,1,33.1,22.736c0,.1,0,.2,0,.3a10.379,10.379,0,0,1-15.977,8.744.312.312,0,0,1,.2-.573,7.084,7.084,0,0,0,.807.047,6.748,6.748,0,0,0,3.556-1,3.849,3.849,0,0,1-2.763-2.569.312.312,0,0,1,.357-.4c.059.011.118.021.177.029a3.866,3.866,0,0,1-1.789-3.253v-.045a.312.312,0,0,1,.464-.273,3.26,3.26,0,0,0,.421.2,3.86,3.86,0,0,1-.336-4.362.312.312,0,0,1,.512-.041A9.774,9.774,0,0,0,25.413,23.1a3.927,3.927,0,0,1-.027-.466,3.854,3.854,0,0,1,6.539-2.762,6.76,6.76,0,0,0,1.984-.787.312.312,0,1,1,.457.363,3.82,3.82,0,0,1-.725,1.308,6.648,6.648,0,0,0,.777-.289.312.312,0,0,1,.386.46Z" transform="translate(-7.99 -7.989)" fill="#231f20"/>
</svg>
