<svg xmlns="http://www.w3.org/2000/svg" width="298.68" height="30.24" viewBox="0 0 298.68 30.24">
  <path id="パス_13" data-name="パス 13" d="M18.24-7.68a6.128,6.128,0,0,1-.99,2.76A5.729,5.729,0,0,1,12.39-2.7c-4.2,0-6.84-3.42-6.84-8.91,0-5.52,2.58-8.85,6.84-8.85a5.432,5.432,0,0,1,4.38,1.86,6.251,6.251,0,0,1,1.29,2.58l4.17-.96a10.669,10.669,0,0,0-.93-2.31,9.21,9.21,0,0,0-3.18-3.27A10.6,10.6,0,0,0,12.36-24a10.424,10.424,0,0,0-7.5,2.85,13.584,13.584,0,0,0-3.51,9.69A13.547,13.547,0,0,0,4.62-2.04,10.318,10.318,0,0,0,12.33.84c3.6,0,6.48-1.17,8.19-3.27a11.462,11.462,0,0,0,2.01-4.5ZM33.9.93c5.34,0,8.85-3.66,8.85-9.21s-3.45-9.09-8.88-9.09c-5.46,0-8.94,3.57-8.94,9.15C24.93-2.61,28.41.93,33.9.93Zm-.03-15.18c3.18,0,5.01,2.22,5.01,6.09,0,3.66-1.92,5.91-5.04,5.91S28.8-4.53,28.8-8.22C28.8-11.97,30.72-14.25,33.87-14.25ZM49.98.36a31.223,31.223,0,0,1-.21-3.9V-9.48a6.774,6.774,0,0,1,1.29-3,3.716,3.716,0,0,1,3.09-1.56c1.95,0,2.91,1.26,2.91,3.78v6.72a24.416,24.416,0,0,1-.24,3.9h4.32a29.348,29.348,0,0,1-.21-3.9V-9.48a5.675,5.675,0,0,1,1.89-3.72,3.47,3.47,0,0,1,2.46-.9c2.01,0,2.94,1.2,2.94,3.84v6.72a23.706,23.706,0,0,1-.24,3.9h4.38a24.416,24.416,0,0,1-.24-3.9v-7.41a6.212,6.212,0,0,0-1.41-4.56,5.92,5.92,0,0,0-4.5-1.71,6.628,6.628,0,0,0-3.36.78,6.941,6.941,0,0,0-2.52,2.37,3.889,3.889,0,0,0-1.14-1.8,5.381,5.381,0,0,0-3.87-1.35,6.049,6.049,0,0,0-5.58,3c.03-.48.03-.93.03-1.11v-1.53H45.75a26.242,26.242,0,0,1,.21,3.9v9.42a30.268,30.268,0,0,1-.21,3.9ZM76.05-23.52v3.81h4.41v-3.81Zm0,6.66a24.657,24.657,0,0,1,.24,3.9v9.42a26.961,26.961,0,0,1-.24,3.9h4.38a30.137,30.137,0,0,1-.21-3.93v-9.36a26.966,26.966,0,0,1,.21-3.93ZM88.5.36a26.693,26.693,0,0,1-.24-3.9V-9.6c1.32-2.97,3.09-4.47,5.25-4.47a2.822,2.822,0,0,1,2.52,1.23,4.928,4.928,0,0,1,.51,2.64v6.66a31.883,31.883,0,0,1-.21,3.9h4.35a23.707,23.707,0,0,1-.24-3.9v-7.2a6.671,6.671,0,0,0-1.02-4.2,5.927,5.927,0,0,0-5.1-2.22c-2.7,0-4.29.84-6.12,3.18a11.721,11.721,0,0,0,.06-1.29v-1.59H84.18a24.657,24.657,0,0,1,.24,3.9v9.42a24.9,24.9,0,0,1-.24,3.9Zm15.51,2.76c2.04,2.31,4.02,3.12,7.53,3.12,3.09,0,5.58-.69,7.08-1.92,1.74-1.47,2.52-3.78,2.52-7.38V-13.11a27.87,27.87,0,0,1,.21-3.75h-4.02v1.38a7.216,7.216,0,0,0,.06.99c-1.29-1.83-3.06-2.64-5.73-2.64-4.86,0-8.01,3.36-8.01,8.55,0,5.13,3.06,8.4,7.83,8.4a6.827,6.827,0,0,0,5.88-2.73,8.173,8.173,0,0,1-.78,3.99c-.84,1.44-2.61,2.25-4.92,2.25a5.081,5.081,0,0,1-4.65-2.28Zm3.57-11.61c0-3.57,1.86-5.82,4.86-5.82a4.534,4.534,0,0,1,2.91,1.08,5.531,5.531,0,0,1,1.8,4.44,6.354,6.354,0,0,1-.84,3.42A5.021,5.021,0,0,1,112.14-3a4.6,4.6,0,0,1-3.18-1.35A5.79,5.79,0,0,1,107.58-8.49Zm26.79,3.96a6.748,6.748,0,0,0,1.17,2.67c1.29,1.74,3.6,2.67,6.69,2.67,2.73,0,4.83-.66,6.21-1.95a4.824,4.824,0,0,0,1.47-3.39,4.264,4.264,0,0,0-1.74-3.72c-.99-.75-2.22-1.17-5.28-1.83a12.636,12.636,0,0,1-3-.9,1.617,1.617,0,0,1-.93-1.41c0-1.26,1.26-2.1,3.12-2.1,1.95,0,2.97.72,3.3,2.37l3.96-.51a5.84,5.84,0,0,0-1.62-2.97,8.185,8.185,0,0,0-5.64-1.74c-2.73,0-4.77.78-6,2.34a4.463,4.463,0,0,0-.93,2.79,4.3,4.3,0,0,0,2.64,3.99,18.136,18.136,0,0,0,4.32,1.29c2.4.54,2.58.57,3.15.96a1.834,1.834,0,0,1,.78,1.5c0,1.41-1.38,2.28-3.6,2.28-2.34,0-3.45-.81-3.96-2.85ZM161.16.93c5.34,0,8.85-3.66,8.85-9.21s-3.45-9.09-8.88-9.09c-5.46,0-8.94,3.57-8.94,9.15C152.19-2.61,155.67.93,161.16.93Zm-.03-15.18c3.18,0,5.01,2.22,5.01,6.09,0,3.66-1.92,5.91-5.04,5.91s-5.04-2.28-5.04-5.97C156.06-11.97,157.98-14.25,161.13-14.25ZM181.26.93c5.34,0,8.85-3.66,8.85-9.21s-3.45-9.09-8.88-9.09c-5.46,0-8.94,3.57-8.94,9.15C172.29-2.61,175.77.93,181.26.93Zm-.03-15.18c3.18,0,5.01,2.22,5.01,6.09,0,3.66-1.92,5.91-5.04,5.91s-5.04-2.28-5.04-5.97C176.16-11.97,178.08-14.25,181.23-14.25ZM197.43.36a26.694,26.694,0,0,1-.24-3.9V-9.6c1.32-2.97,3.09-4.47,5.25-4.47a2.822,2.822,0,0,1,2.52,1.23,4.928,4.928,0,0,1,.51,2.64v6.66a31.88,31.88,0,0,1-.21,3.9h4.35a23.706,23.706,0,0,1-.24-3.9v-7.2a6.671,6.671,0,0,0-1.02-4.2,5.927,5.927,0,0,0-5.1-2.22c-2.7,0-4.29.84-6.12,3.18a11.722,11.722,0,0,0,.06-1.29v-1.59h-4.08a24.658,24.658,0,0,1,.24,3.9v9.42a24.9,24.9,0,0,1-.24,3.9Zm30.24,0V-4.02h-4.38V.36Zm18.09,0V-4.02h-4.38V.36Zm18.09,0V-4.02h-4.38V.36Zm18.09,0V-4.02h-4.38V.36Zm18.09,0V-4.02h-4.38V.36Z" transform="translate(-1.35 24)" fill="#1a1919"/>
</svg>
