<svg xmlns="http://www.w3.org/2000/svg" width="252.46" height="22.18" viewBox="0 0 252.46 22.18">
  <g id="グループ_11" data-name="グループ 11" transform="translate(-257.5 -1427)">
    <path id="パス_22" data-name="パス 22" d="M3.42-.12a12.2,12.2,0,0,1-.16-2.26V-6.32H7.72c3.12,0,4.92-1.7,4.92-4.64,0-2.78-1.74-4.36-4.82-4.36H3.74c-.92,0-1.48-.02-2.2-.06A14.74,14.74,0,0,1,1.7-13.1V-2.36A12.382,12.382,0,0,1,1.54-.12ZM3.26-7.7v-6.24H7.72c2.16,0,3.32,1.06,3.32,3.06,0,2.04-1.2,3.18-3.32,3.18Zm18.32-3.2a9.184,9.184,0,0,0-1.78-.18,3.986,3.986,0,0,0-2.4.7,3.507,3.507,0,0,0-1.1,1.22,5.816,5.816,0,0,0,.02-.6V-10.9H14.66a14.5,14.5,0,0,1,.14,2.26v6.26a18.249,18.249,0,0,1-.14,2.26h1.8a15.648,15.648,0,0,1-.14-2.24V-6.44a3.292,3.292,0,0,1,.74-2,2.952,2.952,0,0,1,2.46-1.22,4.744,4.744,0,0,1,1.62.3ZM28.12.14c3.22,0,5.3-2.24,5.3-5.66,0-3.44-2.06-5.64-5.32-5.64s-5.34,2.2-5.34,5.66S24.84.14,28.12.14ZM28.14-9.9c2.3,0,3.74,1.68,3.74,4.38S30.44-1.16,28.1-1.16s-3.8-1.66-3.8-4.38C24.3-8.24,25.76-9.9,28.14-9.9ZM35.72,2.18a5.477,5.477,0,0,0,4.54,2,5.392,5.392,0,0,0,4.16-1.52A6.049,6.049,0,0,0,45.58-1.5V-8.66a15.275,15.275,0,0,1,.14-2.24h-1.6v1.14c0,.26.02.42.04.76a4.135,4.135,0,0,0-3.84-2.1c-3.1,0-5.06,2.16-5.06,5.56C35.26-2.2,37.18-.1,40.2-.1a4.643,4.643,0,0,0,3.1-1.04,3.63,3.63,0,0,0,.86-1.1A11.091,11.091,0,0,1,43.8.72a3.368,3.368,0,0,1-3.48,2.2,3.825,3.825,0,0,1-2.68-.94,2.81,2.81,0,0,1-.64-.7Zm1.1-7.72c0-2.66,1.36-4.3,3.58-4.3,2.24,0,3.68,1.62,3.68,4.14,0,2.6-1.52,4.34-3.8,4.34C38.14-1.36,36.82-2.94,36.82-5.54ZM55.5-10.9a9.184,9.184,0,0,0-1.78-.18,3.986,3.986,0,0,0-2.4.7,3.507,3.507,0,0,0-1.1,1.22,5.818,5.818,0,0,0,.02-.6V-10.9H48.58a14.5,14.5,0,0,1,.14,2.26v6.26a18.25,18.25,0,0,1-.14,2.26h1.8a15.647,15.647,0,0,1-.14-2.24V-6.44a3.292,3.292,0,0,1,.74-2,2.952,2.952,0,0,1,2.46-1.22,4.744,4.744,0,0,1,1.62.3ZM64.3-.12h1.62a12.788,12.788,0,0,1-.16-2.2V-7.94c0-2.16-1.36-3.28-4-3.28a5.036,5.036,0,0,0-3.52,1.14A3.958,3.958,0,0,0,57.12-8.3l1.56.34a2.811,2.811,0,0,1,.62-1.16,3.28,3.28,0,0,1,2.48-.86c1.66,0,2.52.7,2.52,2.06v1.16a16.329,16.329,0,0,0-4.6.52c-1.86.52-2.86,1.68-2.86,3.28,0,1.9,1.34,3.04,3.54,3.04a5.9,5.9,0,0,0,2.08-.4A5.212,5.212,0,0,0,64.3-1.54Zm0-4.16a2.18,2.18,0,0,1-.62,1.72,4.522,4.522,0,0,1-3.2,1.42c-1.3,0-2.12-.7-2.12-1.8A2.124,2.124,0,0,1,59.88-5a12.352,12.352,0,0,1,4.42-.58ZM70.44-.12a15.936,15.936,0,0,1-.14-2.26V-6.3a4.459,4.459,0,0,1,.66-2,3.13,3.13,0,0,1,2.62-1.52c1.44,0,2.24.96,2.24,2.72v4.72a14.326,14.326,0,0,1-.14,2.26h1.8a13.889,13.889,0,0,1-.14-2.24V-6.3A4.3,4.3,0,0,1,78-8.36a3,3,0,0,1,2.52-1.46c1.6,0,2.3.82,2.3,2.72v4.72a12.142,12.142,0,0,1-.14,2.26h1.8a14.054,14.054,0,0,1-.14-2.24V-7.3a4.071,4.071,0,0,0-.68-2.6,3.456,3.456,0,0,0-2.92-1.22,3.928,3.928,0,0,0-3.7,2.18,2.627,2.627,0,0,0-.62-1.16,3.231,3.231,0,0,0-2.58-1.02,3.886,3.886,0,0,0-2.82,1.04,4.116,4.116,0,0,0-.76,1c.02-.38.04-.62.04-.72v-1.1H68.68a14.5,14.5,0,0,1,.14,2.26v6.26a15.016,15.016,0,0,1-.14,2.26Zm18.62,0a15.936,15.936,0,0,1-.14-2.26V-6.3a4.459,4.459,0,0,1,.66-2A3.13,3.13,0,0,1,92.2-9.82c1.44,0,2.24.96,2.24,2.72v4.72A14.326,14.326,0,0,1,94.3-.12h1.8a13.889,13.889,0,0,1-.14-2.24V-6.3a4.3,4.3,0,0,1,.66-2.06,3,3,0,0,1,2.52-1.46c1.6,0,2.3.82,2.3,2.72v4.72a12.142,12.142,0,0,1-.14,2.26h1.8a14.054,14.054,0,0,1-.14-2.24V-7.3a4.071,4.071,0,0,0-.68-2.6,3.456,3.456,0,0,0-2.92-1.22,3.928,3.928,0,0,0-3.7,2.18,2.627,2.627,0,0,0-.62-1.16,3.231,3.231,0,0,0-2.58-1.02,3.886,3.886,0,0,0-2.82,1.04,4.116,4.116,0,0,0-.76,1c.02-.38.04-.62.04-.72v-1.1H87.3a14.5,14.5,0,0,1,.14,2.26v6.26A15.016,15.016,0,0,1,87.3-.12Zm16.84-15.2v1.78h1.94v-1.78Zm.06,4.42a14.666,14.666,0,0,1,.14,2.26v6.26a17.356,17.356,0,0,1-.14,2.26h1.8a15.747,15.747,0,0,1-.14-2.26V-8.64a14.327,14.327,0,0,1,.14-2.26ZM112.48-.12a16.129,16.129,0,0,1-.14-2.26V-6.24a4.284,4.284,0,0,1,.92-1.98,3.484,3.484,0,0,1,2.86-1.58c1.58,0,2.44.96,2.44,2.76v4.66a16.128,16.128,0,0,1-.14,2.26h1.8a13.566,13.566,0,0,1-.14-2.24V-7.3a4.079,4.079,0,0,0-.56-2.3,3.611,3.611,0,0,0-3.2-1.5,4.344,4.344,0,0,0-4.04,2.42,5.36,5.36,0,0,0,.06-.86V-10.9h-1.66a13.509,13.509,0,0,1,.16,2.26v6.26a12.76,12.76,0,0,1-.16,2.26ZM123,2.18a5.477,5.477,0,0,0,4.54,2,5.392,5.392,0,0,0,4.16-1.52,6.049,6.049,0,0,0,1.16-4.16V-8.66A15.276,15.276,0,0,1,133-10.9h-1.6v1.14c0,.26.02.42.04.76a4.135,4.135,0,0,0-3.84-2.1c-3.1,0-5.06,2.16-5.06,5.56,0,3.34,1.92,5.44,4.94,5.44a4.643,4.643,0,0,0,3.1-1.04,3.63,3.63,0,0,0,.86-1.1,11.092,11.092,0,0,1-.36,2.96,3.368,3.368,0,0,1-3.48,2.2,3.825,3.825,0,0,1-2.68-.94,2.81,2.81,0,0,1-.64-.7Zm1.1-7.72c0-2.66,1.36-4.3,3.58-4.3,2.24,0,3.68,1.62,3.68,4.14,0,2.6-1.52,4.34-3.8,4.34C125.42-1.36,124.1-2.94,124.1-5.54Zm18.42-9.78a14.389,14.389,0,0,1,.14,2.24V-2.36a15.092,15.092,0,0,1-.14,2.24h1.8a15.837,15.837,0,0,1-.14-2.24v-10.7a14.494,14.494,0,0,1,.14-2.26ZM154.28-.12h1.62a12.787,12.787,0,0,1-.16-2.2V-7.94c0-2.16-1.36-3.28-4-3.28a5.036,5.036,0,0,0-3.52,1.14A3.958,3.958,0,0,0,147.1-8.3l1.56.34a2.811,2.811,0,0,1,.62-1.16,3.28,3.28,0,0,1,2.48-.86c1.66,0,2.52.7,2.52,2.06v1.16a16.329,16.329,0,0,0-4.6.52c-1.86.52-2.86,1.68-2.86,3.28,0,1.9,1.34,3.04,3.54,3.04a5.9,5.9,0,0,0,2.08-.4,5.212,5.212,0,0,0,1.84-1.22Zm0-4.16a2.18,2.18,0,0,1-.62,1.72,4.522,4.522,0,0,1-3.2,1.42c-1.3,0-2.12-.7-2.12-1.8A2.124,2.124,0,0,1,149.86-5a12.353,12.353,0,0,1,4.42-.58Zm6.18,4.16a16.128,16.128,0,0,1-.14-2.26V-6.24a4.284,4.284,0,0,1,.92-1.98A3.484,3.484,0,0,1,164.1-9.8c1.58,0,2.44.96,2.44,2.76v4.66a16.13,16.13,0,0,1-.14,2.26h1.8a13.565,13.565,0,0,1-.14-2.24V-7.3a4.079,4.079,0,0,0-.56-2.3,3.611,3.611,0,0,0-3.2-1.5,4.344,4.344,0,0,0-4.04,2.42,5.36,5.36,0,0,0,.06-.86V-10.9h-1.66a13.51,13.51,0,0,1,.16,2.26v6.26a12.761,12.761,0,0,1-.16,2.26Zm10.52,2.3a5.477,5.477,0,0,0,4.54,2,5.392,5.392,0,0,0,4.16-1.52,6.049,6.049,0,0,0,1.16-4.16V-8.66a15.274,15.274,0,0,1,.14-2.24h-1.6v1.14c0,.26.02.42.04.76a4.135,4.135,0,0,0-3.84-2.1c-3.1,0-5.06,2.16-5.06,5.56,0,3.34,1.92,5.44,4.94,5.44a4.643,4.643,0,0,0,3.1-1.04,3.63,3.63,0,0,0,.86-1.1,11.092,11.092,0,0,1-.36,2.96,3.368,3.368,0,0,1-3.48,2.2,3.825,3.825,0,0,1-2.68-.94,2.81,2.81,0,0,1-.64-.7Zm1.1-7.72c0-2.66,1.36-4.3,3.58-4.3,2.24,0,3.68,1.62,3.68,4.14,0,2.6-1.52,4.34-3.8,4.34C173.4-1.36,172.08-2.94,172.08-5.54ZM191.7-.12h1.66a13.509,13.509,0,0,1-.16-2.26V-8.64a15.015,15.015,0,0,1,.14-2.26h-1.78a15.559,15.559,0,0,1,.14,2.26v3.86a4.671,4.671,0,0,1-.92,2A3.44,3.44,0,0,1,187.9-1.2c-1.56,0-2.42-1-2.42-2.78V-8.64a15.377,15.377,0,0,1,.14-2.26h-1.8a14.389,14.389,0,0,1,.14,2.24v4.94a4.373,4.373,0,0,0,.56,2.32,3.645,3.645,0,0,0,3.2,1.48,4.368,4.368,0,0,0,4.04-2.38,6.144,6.144,0,0,0-.06.88Zm11.62,0h1.62a12.787,12.787,0,0,1-.16-2.2V-7.94c0-2.16-1.36-3.28-4-3.28a5.036,5.036,0,0,0-3.52,1.14,3.958,3.958,0,0,0-1.12,1.78l1.56.34a2.811,2.811,0,0,1,.62-1.16,3.28,3.28,0,0,1,2.48-.86c1.66,0,2.52.7,2.52,2.06v1.16a16.329,16.329,0,0,0-4.6.52c-1.86.52-2.86,1.68-2.86,3.28,0,1.9,1.34,3.04,3.54,3.04a5.9,5.9,0,0,0,2.08-.4,5.212,5.212,0,0,0,1.84-1.22Zm0-4.16a2.18,2.18,0,0,1-.62,1.72,4.522,4.522,0,0,1-3.2,1.42c-1.3,0-2.12-.7-2.12-1.8A2.124,2.124,0,0,1,198.9-5a12.353,12.353,0,0,1,4.42-.58Zm4.34,6.46a5.477,5.477,0,0,0,4.54,2,5.392,5.392,0,0,0,4.16-1.52,6.049,6.049,0,0,0,1.16-4.16V-8.66a15.274,15.274,0,0,1,.14-2.24h-1.6v1.14c0,.26.02.42.04.76a4.135,4.135,0,0,0-3.84-2.1c-3.1,0-5.06,2.16-5.06,5.56,0,3.34,1.92,5.44,4.94,5.44a4.643,4.643,0,0,0,3.1-1.04,3.63,3.63,0,0,0,.86-1.1,11.092,11.092,0,0,1-.36,2.96,3.368,3.368,0,0,1-3.48,2.2,3.825,3.825,0,0,1-2.68-.94,2.81,2.81,0,0,1-.64-.7Zm1.1-7.72c0-2.66,1.36-4.3,3.58-4.3,2.24,0,3.68,1.62,3.68,4.14,0,2.6-1.52,4.34-3.8,4.34C210.08-1.36,208.76-2.94,208.76-5.54Zm21.2.26c-.04-.54-.12-1.32-.14-1.54a4.728,4.728,0,0,0-4.84-4.34c-3,0-4.96,2.24-4.96,5.66,0,3.46,1.98,5.66,5.12,5.66a5,5,0,0,0,3.62-1.4,4.782,4.782,0,0,0,1.1-1.66l-1.4-.56a3.269,3.269,0,0,1-3.3,2.34,3.346,3.346,0,0,1-2.82-1.36,4.531,4.531,0,0,1-.8-2.8ZM221.6-6.54a4.184,4.184,0,0,1,.5-1.62,3.131,3.131,0,0,1,2.84-1.74,3.244,3.244,0,0,1,2.36.9,3.651,3.651,0,0,1,1.06,2.46Z" transform="translate(280 1445)" fill="#1a1919"/>
    <path id="線_3" data-name="線 3" d="M2.5,22h-5V0h5Z" transform="translate(260 1427)" fill="#707070"/>
  </g>
</svg>
