<svg xmlns="http://www.w3.org/2000/svg" width="123.52" height="22.18" viewBox="0 0 123.52 22.18">
  <g id="グループ_7" data-name="グループ 7" transform="translate(-1085.5 -898)">
    <path id="線_2" data-name="線 2" d="M2.5,22h-5V0h5Z" transform="translate(1088 898)" fill="#707070"/>
    <path id="パス_19" data-name="パス 19" d="M11.84-1.66a14.812,14.812,0,0,1-2.22.14H3.28V-7.4H8.54a13.566,13.566,0,0,1,2.24.14V-8.94a15.647,15.647,0,0,1-2.24.14H3.28v-5.12H9.44a14.054,14.054,0,0,1,2.24.14v-1.68a14.913,14.913,0,0,1-2.24.14H3.74c-.96,0-1.5-.02-2.2-.06A14.74,14.74,0,0,1,1.7-13.1V-2.44A13.767,13.767,0,0,1,1.54-.06c.68-.04,1.24-.06,2.2-.06H9.6a13.1,13.1,0,0,1,2.24.14ZM18.08-.12a16.129,16.129,0,0,1-.14-2.26V-6.24a4.284,4.284,0,0,1,.92-1.98A3.484,3.484,0,0,1,21.72-9.8c1.58,0,2.44.96,2.44,2.76v4.66a16.129,16.129,0,0,1-.14,2.26h1.8a13.566,13.566,0,0,1-.14-2.24V-7.3a4.079,4.079,0,0,0-.56-2.3,3.611,3.611,0,0,0-3.2-1.5,4.344,4.344,0,0,0-4.04,2.42,5.36,5.36,0,0,0,.06-.86V-10.9H16.28a13.51,13.51,0,0,1,.16,2.26v6.26a12.76,12.76,0,0,1-.16,2.26ZM30.6,2.18a5.477,5.477,0,0,0,4.54,2A5.392,5.392,0,0,0,39.3,2.66,6.049,6.049,0,0,0,40.46-1.5V-8.66a15.275,15.275,0,0,1,.14-2.24H39v1.14c0,.26.02.42.04.76a4.135,4.135,0,0,0-3.84-2.1c-3.1,0-5.06,2.16-5.06,5.56,0,3.34,1.92,5.44,4.94,5.44a4.643,4.643,0,0,0,3.1-1.04,3.63,3.63,0,0,0,.86-1.1A11.092,11.092,0,0,1,38.68.72a3.368,3.368,0,0,1-3.48,2.2,3.825,3.825,0,0,1-2.68-.94,2.81,2.81,0,0,1-.64-.7Zm1.1-7.72c0-2.66,1.36-4.3,3.58-4.3,2.24,0,3.68,1.62,3.68,4.14,0,2.6-1.52,4.34-3.8,4.34C33.02-1.36,31.7-2.94,31.7-5.54Zm13.74-9.78v1.78h1.94v-1.78Zm.06,4.42a14.666,14.666,0,0,1,.14,2.26v6.26A17.355,17.355,0,0,1,45.5-.12h1.8a15.747,15.747,0,0,1-.14-2.26V-8.64a14.327,14.327,0,0,1,.14-2.26ZM54.02-.12a16.129,16.129,0,0,1-.14-2.26V-6.24a4.284,4.284,0,0,1,.92-1.98A3.484,3.484,0,0,1,57.66-9.8c1.58,0,2.44.96,2.44,2.76v4.66a16.129,16.129,0,0,1-.14,2.26h1.8a13.566,13.566,0,0,1-.14-2.24V-7.3a4.079,4.079,0,0,0-.56-2.3,3.611,3.611,0,0,0-3.2-1.5,4.344,4.344,0,0,0-4.04,2.42,5.36,5.36,0,0,0,.06-.86V-10.9H52.22a13.51,13.51,0,0,1,.16,2.26v6.26a12.76,12.76,0,0,1-.16,2.26Zm22-5.16c-.04-.54-.12-1.32-.14-1.54a4.728,4.728,0,0,0-4.84-4.34c-3,0-4.96,2.24-4.96,5.66,0,3.46,1.98,5.66,5.12,5.66a5,5,0,0,0,3.62-1.4,4.782,4.782,0,0,0,1.1-1.66l-1.4-.56a3.269,3.269,0,0,1-3.3,2.34A3.346,3.346,0,0,1,68.4-2.48a4.531,4.531,0,0,1-.8-2.8ZM67.66-6.54a4.184,4.184,0,0,1,.5-1.62A3.131,3.131,0,0,1,71-9.9a3.244,3.244,0,0,1,2.36.9,3.651,3.651,0,0,1,1.06,2.46ZM89.78-5.28c-.04-.54-.12-1.32-.14-1.54a4.728,4.728,0,0,0-4.84-4.34c-3,0-4.96,2.24-4.96,5.66,0,3.46,1.98,5.66,5.12,5.66a5,5,0,0,0,3.62-1.4,4.782,4.782,0,0,0,1.1-1.66l-1.4-.56a3.269,3.269,0,0,1-3.3,2.34,3.346,3.346,0,0,1-2.82-1.36,4.531,4.531,0,0,1-.8-2.8ZM81.42-6.54a4.184,4.184,0,0,1,.5-1.62A3.131,3.131,0,0,1,84.76-9.9a3.244,3.244,0,0,1,2.36.9,3.651,3.651,0,0,1,1.06,2.46Zm19.6-4.36a9.184,9.184,0,0,0-1.78-.18,3.986,3.986,0,0,0-2.4.7,3.507,3.507,0,0,0-1.1,1.22,5.815,5.815,0,0,0,.02-.6V-10.9H94.1a14.5,14.5,0,0,1,.14,2.26v6.26A18.25,18.25,0,0,1,94.1-.12h1.8a15.648,15.648,0,0,1-.14-2.24V-6.44a3.292,3.292,0,0,1,.74-2,2.952,2.952,0,0,1,2.46-1.22,4.744,4.744,0,0,1,1.62.3Z" transform="translate(1108 916)" fill="#1a1919"/>
  </g>
</svg>
