<svg xmlns="http://www.w3.org/2000/svg" width="145.32" height="18.86" viewBox="0 0 145.32 18.86">
  <g id="グループ_6" data-name="グループ 6" transform="translate(-201.26 -844.54)">
    <path id="パス_16" data-name="パス 16" d="M17.32-14.28a3.9,3.9,0,0,1-1.22.34L8.14-12.62l-.38-2.12a10.281,10.281,0,0,1-.24-1.76l-2.64.4a9.785,9.785,0,0,1,.42,1.86l.38,2.02-2.12.34a14.919,14.919,0,0,1-2.3.22l.42,2.52a16.578,16.578,0,0,1,2.2-.48l2.2-.36L7.76-.8A17.1,17.1,0,0,1,8,1.22L10.72.74a12.071,12.071,0,0,1-.5-2.1L8.54-10.4l6.5-1.08q.36-.09.54-.12a8,8,0,0,1-1.6,2.52A10.861,10.861,0,0,1,11.4-6.92a6.926,6.926,0,0,1,2.02,1.56,15.866,15.866,0,0,0,2.4-2.26,14.357,14.357,0,0,0,2.46-4.14,4.226,4.226,0,0,1,.54-1.14Zm6.66,6.1a32.282,32.282,0,0,1,4,3.86A32.925,32.925,0,0,1,31.84.72l2.1-1.68C32.9-2.38,32.14-3.34,31.3-4.3a30.934,30.934,0,0,0,6.46-7.58,6.244,6.244,0,0,1,.88-1.18l-1.4-1.58a5.237,5.237,0,0,1-1.66.16l-11.12.02a14.587,14.587,0,0,1-2.6-.14v2.54a21.691,21.691,0,0,1,2.56-.1h9.54c.42,0,.72-.02.92-.04a.513.513,0,0,0-.04.1,1.4,1.4,0,0,0-.12.18,26.454,26.454,0,0,1-2.44,3.26,24.561,24.561,0,0,1-2.62,2.52c-.14-.12-.14-.12-1.24-1.24C27.6-8.18,27-8.72,25.94-9.6Zm31.6-5.02.86-.32a12.71,12.71,0,0,0-1.78-3.16l-1.48.5a12.4,12.4,0,0,1,1.46,2.5,9.668,9.668,0,0,1-1.04.04l-4.38.06c-.4,0-.72.02-.96.04l.16-.3c.04-.08.04-.1.14-.28.2-.4.38-.8.54-1.16a2.388,2.388,0,0,1,.34-.6l-2.74-.56a7.675,7.675,0,0,1-1.02,2.66,15.757,15.757,0,0,1-5.18,5.8,5.314,5.314,0,0,1,1.94,1.72,19.874,19.874,0,0,0,4.68-5.14l6.02-.08A16.094,16.094,0,0,1,42.92-.7a6.618,6.618,0,0,1,1.7,2.1,20.189,20.189,0,0,0,7.12-5.06,19.721,19.721,0,0,0,4.02-7.56,4.034,4.034,0,0,1,.5-1.2Zm3.46-1.22a11.671,11.671,0,0,0-1.76-3.04l-1.44.5a14.326,14.326,0,0,1,1.72,3.1ZM74.4-16.24a10.518,10.518,0,0,1-2.42.94,34.525,34.525,0,0,1-8.56,1.16c-.3,0-.62,0-1.24-.04a8.393,8.393,0,0,1,.74,2.16,44.754,44.754,0,0,0,5.54-.46c0,1.4,0,2.18-.04,3.02H63.3a12.4,12.4,0,0,1-2.44-.14v2.4a18.275,18.275,0,0,1,2.4-.1H68.2a11.506,11.506,0,0,1-.22,1.34,6.383,6.383,0,0,1-2.3,3.4,9.223,9.223,0,0,1-3.1,1.68,6.479,6.479,0,0,1,1.74,2.12,12.47,12.47,0,0,0,1.86-1,10.342,10.342,0,0,0,3.26-3.18A10.485,10.485,0,0,0,70.78-7.3H75.2a18.274,18.274,0,0,1,2.4.1V-9.6a12.4,12.4,0,0,1-2.44.14H70.92c.04-.68.04-.68.06-3.38a24.736,24.736,0,0,0,3.34-.82c1.44-.48,1.44-.48,1.68-.54Z" transform="translate(200 862)" fill="#1a1919"/>
    <path id="パス_17" data-name="パス 17" d="M17.38-15.3a5.506,5.506,0,0,1-1.94.18H5a15.945,15.945,0,0,1-2.76-.16v2.5a19.225,19.225,0,0,1,2.72-.12h10.5a8.294,8.294,0,0,1-1.9,2.54,9.274,9.274,0,0,1-2.92,1.84,6.759,6.759,0,0,1,1.8,1.82,12.51,12.51,0,0,0,2.4-1.66,12.692,12.692,0,0,0,3.08-4.02,5.558,5.558,0,0,1,.8-1.4Zm-9.5,4.04a5.064,5.064,0,0,1,.1,1.2c0,3.78-.64,5.5-2.68,7.12a9.222,9.222,0,0,1-3.5,1.7A7.06,7.06,0,0,1,3.38,1.04a11.556,11.556,0,0,0,5.16-3.6c1.36-1.74,1.9-3.66,1.98-7.08a9.182,9.182,0,0,1,.08-1.62ZM31.5-7.2l.06,5.98v.36a12.734,12.734,0,0,1-.12,1.92h2.72c-.06-.56-.1-1.32-.12-2.3l-.1-9.28H36a20.565,20.565,0,0,1,2.3.08v-2.42a11.372,11.372,0,0,1-2.36.14H33.92l-.04-1.62v-.12a12.832,12.832,0,0,1,.08-1.7H31.32a14.419,14.419,0,0,1,.1,1.84l.02,1.6H24.52A11.622,11.622,0,0,1,22-12.86v2.44a20.835,20.835,0,0,1,2.46-.1h5.48a19.027,19.027,0,0,1-2.68,3.3,21.285,21.285,0,0,1-6.3,4.34A5.794,5.794,0,0,1,22.62-.8a28.97,28.97,0,0,0,2.96-1.84,27.535,27.535,0,0,0,3.94-3.48,12.116,12.116,0,0,0,2.04-2.8c-.02.32-.06,1.34-.06,1.44Zm23.78-9.04a16,16,0,0,1-3.72,3.74,29.208,29.208,0,0,1-10.5,5.2A7.523,7.523,0,0,1,42.4-5.02a32.4,32.4,0,0,0,7.14-3.24v7.04A11.249,11.249,0,0,1,49.42.94h2.8a15.129,15.129,0,0,1-.1-2.22V-9.82a35.367,35.367,0,0,0,4.72-4.12,8.238,8.238,0,0,1,.74-.7Z" transform="translate(289 862)" fill="#1a1919"/>
  </g>
</svg>
