<svg xmlns="http://www.w3.org/2000/svg" width="512.05" height="41.7" viewBox="0 0 512.05 41.7">
  <g id="グループ_5" data-name="グループ 5" transform="translate(-200.55 -887.8)">
    <path id="パス_15" data-name="パス 15" d="M39.85.6A52.473,52.473,0,0,1,37.3-5.3L26.2-34.15a33.108,33.108,0,0,1-1.7-5.05H15.8a29.615,29.615,0,0,1-1.6,5.05L3.2-5.3A54.654,54.654,0,0,1,.55.6h8.2a24.937,24.937,0,0,1,1.5-5.25l2-5.45h16l2,5.45A33.621,33.621,0,0,1,31.65.6ZM26.45-15.85H14.05l5.2-14.8c.15-.45.15-.45.95-2.8.55,1.65.7,2.25.9,2.8ZM66.25-40a17.329,17.329,0,0,0-12.9,5c-3.7,3.6-5.7,9.15-5.7,15.6,0,12.7,7.3,20.85,18.65,20.85S85-6.75,85-19.4c0-6.5-1.95-11.95-5.6-15.6C76-38.4,71.75-40,66.25-40ZM66.4-4.5a10.8,10.8,0,0,1-7.75-3.05c-2.6-2.6-4.05-6.8-4.05-11.8,0-9.05,4.55-14.75,11.75-14.75a10.762,10.762,0,0,1,7.7,3.05C76.6-28.5,78-24.45,78-19.4,78-10.2,73.55-4.5,66.4-4.5ZM95.85-39.2a37.356,37.356,0,0,1,.4,6.45v26.9A37.726,37.726,0,0,1,95.85.6h7.6a37.725,37.725,0,0,1-.4-6.45v-26.9a37.355,37.355,0,0,1,.4-6.45Z" transform="translate(200 928)" fill="#1a1919"/>
    <path id="パス_14" data-name="パス 14" d="M22.75.6a41.238,41.238,0,0,1-.4-6.45V-15.7L33.9-34.05c.85-1.4,2.75-4.15,3.45-5.15h-8.7a21.848,21.848,0,0,1-2.35,4.95L18.95-22,11.7-34.3a20.254,20.254,0,0,1-2.4-4.9H.55c1.6,2.3,2.75,3.95,3.5,5.15L15.6-15.75v9.9A47.839,47.839,0,0,1,15.2.6Zm54.5,0A52.473,52.473,0,0,1,74.7-5.3L63.6-34.15a33.108,33.108,0,0,1-1.7-5.05H53.2a29.615,29.615,0,0,1-1.6,5.05L40.6-5.3A54.654,54.654,0,0,1,37.95.6h8.2a24.937,24.937,0,0,1,1.5-5.25l2-5.45h16l2,5.45A33.621,33.621,0,0,1,69.05.6ZM63.85-15.85H51.45l5.2-14.8c.15-.45.15-.45.95-2.8.55,1.65.7,2.25.9,2.8ZM110.4.6a40.711,40.711,0,0,1,2.2-6.65l7.5-17.6a61.019,61.019,0,0,0,2.3-7.3c-.05.75-.2,3.3-.4,7.65V-6.7a46.489,46.489,0,0,1-.4,7.3h7a43.347,43.347,0,0,1-.4-7.3V-31.8a51.782,51.782,0,0,1,.4-7.4h-9.2a27.708,27.708,0,0,1-1.8,5.95L107.5-8.45,97.35-33.25A34.6,34.6,0,0,1,95.5-39.2H86.35a49.6,49.6,0,0,1,.4,7.4V-6.7a46.9,46.9,0,0,1-.4,7.3h7a45.683,45.683,0,0,1-.4-7.3V-23.1c0-1.1-.2-5.2-.4-7.85A55.644,55.644,0,0,0,95.1-23.3l7.2,17.15A34.038,34.038,0,0,1,104.5.6ZM177,.6a52.469,52.469,0,0,1-2.55-5.9l-11.1-28.85a33.108,33.108,0,0,1-1.7-5.05h-8.7a29.615,29.615,0,0,1-1.6,5.05l-11,28.85A54.653,54.653,0,0,1,137.7.6h8.2a24.937,24.937,0,0,1,1.5-5.25l2-5.45h16l2,5.45A33.619,33.619,0,0,1,168.8.6ZM163.6-15.85H151.2l5.2-14.8c.15-.45.15-.45.95-2.8.55,1.65.7,2.25.9,2.8Zm55.1.95a41.921,41.921,0,0,1,.35-6.2c-2.15.15-3.6.2-5.9.2h-2.6a37.315,37.315,0,0,1-6-.3v6.45a27.371,27.371,0,0,1,5.1-.3h2.7V-6.9a14.921,14.921,0,0,1-8.5,2.25c-3.95,0-6.65-1.05-8.7-3.45-2.25-2.65-3.4-6.55-3.4-11.7,0-5.1,1.2-8.8,3.7-11.4a10.565,10.565,0,0,1,7.6-3.05c5.15,0,7.55,1.6,9.2,6.15l6.85-1.85a14.094,14.094,0,0,0-3.7-5.95,16.331,16.331,0,0,0-11.5-4.3c-4.6,0-8,.9-11.1,2.95-5.2,3.5-8,9.6-8,17.55,0,6.2,1.65,11.6,4.7,15.2,3.15,3.8,7.95,5.75,14.2,5.75A29.609,29.609,0,0,0,211.05.3a31.707,31.707,0,0,0,8-3.45,41.323,41.323,0,0,1-.35-6.5Zm38.85-24.3a40.693,40.693,0,0,1,.4,6.85v17.6c0,6.8-3.45,10.35-10.15,10.35-6.75,0-10.25-3.55-10.25-10.3V-32.35a39.21,39.21,0,0,1,.4-6.85H230.5a41.074,41.074,0,0,1,.4,6.85V-14.7c0,5,1.2,8.75,3.75,11.5,2.75,3,7.35,4.7,12.9,4.7,10.9,0,17.05-5.8,17.05-16.15V-32.4a40.411,40.411,0,0,1,.4-6.8ZM303.9-12.8a10.213,10.213,0,0,1-1.65,4.6c-1.6,2.35-4.6,3.7-8.1,3.7-7,0-11.4-5.7-11.4-14.85,0-9.2,4.3-14.75,11.4-14.75a9.054,9.054,0,0,1,7.3,3.1,10.419,10.419,0,0,1,2.15,4.3l6.95-1.6A17.78,17.78,0,0,0,309-32.15a15.35,15.35,0,0,0-5.3-5.45,17.668,17.668,0,0,0-9.6-2.4,17.373,17.373,0,0,0-12.5,4.75c-3.75,3.75-5.85,9.55-5.85,16.15,0,6.4,1.95,12.05,5.45,15.7,3.05,3.15,7.4,4.8,12.85,4.8,6,0,10.8-1.95,13.65-5.45a19.1,19.1,0,0,0,3.35-7.5Zm44.55-26.4a37.723,37.723,0,0,1,.4,6.45v9.6h-20.1V-32.8a40.979,40.979,0,0,1,.4-6.4H321.7a38.1,38.1,0,0,1,.4,6.45v26.9A37.723,37.723,0,0,1,321.7.6h7.45a39.246,39.246,0,0,1-.4-6.45v-11.3h20.1v11.3a38.1,38.1,0,0,1-.4,6.45h7.45a39.636,39.636,0,0,1-.4-6.45V-32.8a38.98,38.98,0,0,1,.4-6.4Zm19.55,0a37.353,37.353,0,0,1,.4,6.45v26.9A37.723,37.723,0,0,1,368,.6h7.6a37.727,37.727,0,0,1-.4-6.45v-26.9a37.357,37.357,0,0,1,.4-6.45Z" transform="translate(337 928)" fill="#1a1919"/>
  </g>
</svg>
