<svg xmlns="http://www.w3.org/2000/svg" width="124.2" height="22.18" viewBox="0 0 124.2 22.18">
  <g id="グループ_8" data-name="グループ 8" transform="translate(-913.5 -898)">
    <path id="線_1" data-name="線 1" d="M2.5,22h-5V0h5Z" transform="translate(916 898)" fill="#707070"/>
    <path id="パス_18" data-name="パス 18" d="M1.7-2.44A14.066,14.066,0,0,1,1.54-.06c.7-.04,1.24-.06,2.2-.06H7.12A6.7,6.7,0,0,0,11.98-1.9a8.084,8.084,0,0,0,2.14-5.92c0-4.78-2.54-7.5-7-7.5H3.74c-.96,0-1.5-.02-2.2-.06A14.4,14.4,0,0,1,1.7-13.1Zm1.56.92v-12.4h3.9a4.929,4.929,0,0,1,3.76,1.36A6.462,6.462,0,0,1,12.5-7.82a6.812,6.812,0,0,1-1.68,4.88A4.885,4.885,0,0,1,7.08-1.52ZM28.02-5.28c-.04-.54-.12-1.32-.14-1.54a4.728,4.728,0,0,0-4.84-4.34c-3,0-4.96,2.24-4.96,5.66,0,3.46,1.98,5.66,5.12,5.66a5,5,0,0,0,3.62-1.4,4.782,4.782,0,0,0,1.1-1.66l-1.4-.56a3.269,3.269,0,0,1-3.3,2.34A3.346,3.346,0,0,1,20.4-2.48a4.531,4.531,0,0,1-.8-2.8ZM19.66-6.54a4.184,4.184,0,0,1,.5-1.62A3.131,3.131,0,0,1,23-9.9a3.244,3.244,0,0,1,2.36.9,3.651,3.651,0,0,1,1.06,2.46Zm12.1,3.5a3.95,3.95,0,0,0,.64,1.58A4.693,4.693,0,0,0,36.36.1C39.1.1,40.8-1.14,40.8-3.14a2.64,2.64,0,0,0-.96-2.08,7.552,7.552,0,0,0-3.18-1.14,7.458,7.458,0,0,1-2.22-.68,1.229,1.229,0,0,1-.68-1.1c0-1.06,1.04-1.8,2.5-1.8a2.734,2.734,0,0,1,2.08.76,1.82,1.82,0,0,1,.5,1.06l1.58-.26a3.228,3.228,0,0,0-1.06-1.82,4.607,4.607,0,0,0-3.14-.96,4.381,4.381,0,0,0-3.12,1.04,2.675,2.675,0,0,0-.86,1.94,2.459,2.459,0,0,0,1.08,2.1,7.623,7.623,0,0,0,2.96,1.04,6.431,6.431,0,0,1,2.36.72,1.35,1.35,0,0,1,.62,1.24c0,1.18-1.1,1.92-2.84,1.92a3.386,3.386,0,0,1-2.32-.7,2.243,2.243,0,0,1-.7-1.46Zm13.3-12.28v1.78H47v-1.78Zm.06,4.42a14.666,14.666,0,0,1,.14,2.26v6.26a17.355,17.355,0,0,1-.14,2.26h1.8a15.747,15.747,0,0,1-.14-2.26V-8.64a14.327,14.327,0,0,1,.14-2.26ZM51.8,2.18a5.477,5.477,0,0,0,4.54,2A5.392,5.392,0,0,0,60.5,2.66,6.049,6.049,0,0,0,61.66-1.5V-8.66a15.274,15.274,0,0,1,.14-2.24H60.2v1.14c0,.26.02.42.04.76a4.135,4.135,0,0,0-3.84-2.1c-3.1,0-5.06,2.16-5.06,5.56,0,3.34,1.92,5.44,4.94,5.44a4.643,4.643,0,0,0,3.1-1.04,3.63,3.63,0,0,0,.86-1.1A11.091,11.091,0,0,1,59.88.72a3.368,3.368,0,0,1-3.48,2.2,3.825,3.825,0,0,1-2.68-.94,2.81,2.81,0,0,1-.64-.7Zm1.1-7.72c0-2.66,1.36-4.3,3.58-4.3,2.24,0,3.68,1.62,3.68,4.14,0,2.6-1.52,4.34-3.8,4.34C54.22-1.36,52.9-2.94,52.9-5.54ZM68.46-.12a16.129,16.129,0,0,1-.14-2.26V-6.24a4.284,4.284,0,0,1,.92-1.98A3.484,3.484,0,0,1,72.1-9.8c1.58,0,2.44.96,2.44,2.76v4.66A16.128,16.128,0,0,1,74.4-.12h1.8a13.566,13.566,0,0,1-.14-2.24V-7.3a4.079,4.079,0,0,0-.56-2.3,3.611,3.611,0,0,0-3.2-1.5,4.344,4.344,0,0,0-4.04,2.42,5.36,5.36,0,0,0,.06-.86V-10.9H66.66a13.509,13.509,0,0,1,.16,2.26v6.26a12.76,12.76,0,0,1-.16,2.26Zm22-5.16c-.04-.54-.12-1.32-.14-1.54a4.728,4.728,0,0,0-4.84-4.34c-3,0-4.96,2.24-4.96,5.66,0,3.46,1.98,5.66,5.12,5.66a4.994,4.994,0,0,0,3.62-1.4,4.782,4.782,0,0,0,1.1-1.66l-1.4-.56a3.269,3.269,0,0,1-3.3,2.34,3.346,3.346,0,0,1-2.82-1.36,4.531,4.531,0,0,1-.8-2.8ZM82.1-6.54a4.184,4.184,0,0,1,.5-1.62A3.131,3.131,0,0,1,85.44-9.9,3.244,3.244,0,0,1,87.8-9a3.651,3.651,0,0,1,1.06,2.46Zm19.6-4.36a9.184,9.184,0,0,0-1.78-.18,3.986,3.986,0,0,0-2.4.7,3.507,3.507,0,0,0-1.1,1.22,5.815,5.815,0,0,0,.02-.6V-10.9H94.78a14.5,14.5,0,0,1,.14,2.26v6.26a18.25,18.25,0,0,1-.14,2.26h1.8a15.648,15.648,0,0,1-.14-2.24V-6.44a3.292,3.292,0,0,1,.74-2,2.952,2.952,0,0,1,2.46-1.22,4.744,4.744,0,0,1,1.62.3Z" transform="translate(936 916)" fill="#1a1919"/>
  </g>
</svg>
