<svg xmlns="http://www.w3.org/2000/svg" width="65.84" height="22" viewBox="0 0 65.84 22">
  <g id="グループ_10" data-name="グループ 10" transform="translate(-257.5 -1280)">
    <path id="パス_21" data-name="パス 21" d="M7.986-15.312H11.4a15.822,15.822,0,0,1,2.6.154v-1.848a15.474,15.474,0,0,1-2.6.154H2.816a15.513,15.513,0,0,1-2.508-.154v1.848a15.813,15.813,0,0,1,2.53-.154H6.27V-2.618A13.117,13.117,0,0,1,6.094-.132H8.162a13.568,13.568,0,0,1-.176-2.486ZM19.206.154c3.542,0,5.83-2.464,5.83-6.226,0-3.784-2.266-6.2-5.852-6.2S13.31-9.856,13.31-6.05,15.6.154,19.206.154Zm.022-11.044c2.53,0,4.114,1.848,4.114,4.818s-1.584,4.8-4.158,4.8S15-3.1,15-6.094C15-9.064,16.61-10.89,19.228-10.89ZM32.956.154c3.542,0,5.83-2.464,5.83-6.226,0-3.784-2.266-6.2-5.852-6.2S27.06-9.856,27.06-6.05,29.348.154,32.956.154Zm.022-11.044c2.53,0,4.114,1.848,4.114,4.818s-1.584,4.8-4.158,4.8-4.18-1.826-4.18-4.818C28.754-9.064,30.36-10.89,32.978-10.89Zm8.382-5.962a15.829,15.829,0,0,1,.154,2.464V-2.6A16.6,16.6,0,0,1,41.36-.132h1.98A17.422,17.422,0,0,1,43.186-2.6v-11.77a15.945,15.945,0,0,1,.154-2.486Z" transform="translate(280 1299)" fill="#1a1919"/>
    <path id="線_4" data-name="線 4" d="M2.5,22h-5V0h5Z" transform="translate(260 1280)" fill="#707070"/>
  </g>
</svg>
