<svg xmlns="http://www.w3.org/2000/svg" width="143.478" height="22" viewBox="0 0 143.478 22">
  <g id="グループ_12" data-name="グループ 12" transform="translate(-257.5 -1589)">
    <path id="パス_23" data-name="パス 23" d="M3.608-8.074H8.756a15.335,15.335,0,0,1,2.508.154V-9.768a16.828,16.828,0,0,1-2.508.154H3.608V-15.29H9.944a15.455,15.455,0,0,1,2.53.154v-1.87a17.141,17.141,0,0,1-2.53.154H4.114c-1.056,0-1.65-.022-2.42-.066A15.3,15.3,0,0,1,1.87-14.41v11.7A13.835,13.835,0,0,1,1.694-.132h2.09a13.835,13.835,0,0,1-.176-2.574Zm18.81-3.916a10.1,10.1,0,0,0-1.958-.2,4.385,4.385,0,0,0-2.64.77,3.858,3.858,0,0,0-1.21,1.342,6.4,6.4,0,0,0,.022-.66V-11.99H14.806A15.945,15.945,0,0,1,14.96-9.5v6.886a20.074,20.074,0,0,1-.154,2.486h1.98A17.212,17.212,0,0,1,16.632-2.6V-7.084a3.622,3.622,0,0,1,.814-2.2,3.247,3.247,0,0,1,2.706-1.342,5.218,5.218,0,0,1,1.782.33ZM32.1-.132H33.88a14.067,14.067,0,0,1-.176-2.42V-8.734c0-2.376-1.5-3.608-4.4-3.608a5.54,5.54,0,0,0-3.872,1.254A4.353,4.353,0,0,0,24.2-9.13l1.716.374a3.092,3.092,0,0,1,.682-1.276,3.608,3.608,0,0,1,2.728-.946c1.826,0,2.772.77,2.772,2.266v1.276a17.962,17.962,0,0,0-5.06.572c-2.046.572-3.146,1.848-3.146,3.608,0,2.09,1.474,3.344,3.894,3.344a6.494,6.494,0,0,0,2.288-.44A5.733,5.733,0,0,0,32.1-1.694Zm0-4.576a2.4,2.4,0,0,1-.682,1.892A4.974,4.974,0,0,1,27.9-1.254c-1.43,0-2.332-.77-2.332-1.98A2.337,2.337,0,0,1,27.236-5.5,13.588,13.588,0,0,1,32.1-6.138ZM38.852-.132A17.53,17.53,0,0,1,38.7-2.618V-6.93a4.905,4.905,0,0,1,.726-2.2A3.443,3.443,0,0,1,42.306-10.8c1.584,0,2.464,1.056,2.464,2.992v5.192a15.759,15.759,0,0,1-.154,2.486H46.6A15.278,15.278,0,0,1,46.442-2.6V-6.93A4.733,4.733,0,0,1,47.168-9.2,3.3,3.3,0,0,1,49.94-10.8c1.76,0,2.53.9,2.53,2.992v5.192a13.357,13.357,0,0,1-.154,2.486H54.3A15.46,15.46,0,0,1,54.142-2.6V-8.03a4.478,4.478,0,0,0-.748-2.86,3.8,3.8,0,0,0-3.212-1.342,4.321,4.321,0,0,0-4.07,2.4,2.89,2.89,0,0,0-.682-1.276,3.554,3.554,0,0,0-2.838-1.122,4.274,4.274,0,0,0-3.1,1.144,4.528,4.528,0,0,0-.836,1.1c.022-.418.044-.682.044-.792v-1.21H36.916A15.945,15.945,0,0,1,37.07-9.5v6.886a16.517,16.517,0,0,1-.154,2.486Zm28.93-5.676C67.738-6.4,67.65-7.26,67.628-7.5A5.2,5.2,0,0,0,62.3-12.276c-3.3,0-5.456,2.464-5.456,6.226,0,3.806,2.178,6.226,5.632,6.226a5.494,5.494,0,0,0,3.982-1.54,5.26,5.26,0,0,0,1.21-1.826l-1.54-.616A3.6,3.6,0,0,1,62.5-1.232a3.681,3.681,0,0,1-3.1-1.5,4.985,4.985,0,0,1-.88-3.08Zm-9.2-1.386a4.6,4.6,0,0,1,.55-1.782A3.444,3.444,0,0,1,62.26-10.89a3.569,3.569,0,0,1,2.6.99,4.016,4.016,0,0,1,1.166,2.706ZM81.774-.132a13.009,13.009,0,0,1,.462-1.65l2.376-7.612c.4-1.254.682-2.134.858-2.6h-2a11.22,11.22,0,0,1-.484,2.4L81.334-4c-.044.132-.154.638-.352,1.5-.044-.154-.044-.154-.132-.484-.088-.308-.22-.792-.286-.99l-2.112-6.336a12.006,12.006,0,0,1-.44-1.672H76.538a7.9,7.9,0,0,1-.44,1.672l-2.09,6.226c-.066.2-.33,1.078-.462,1.584-.154-.77-.286-1.232-.4-1.606L71.544-9.592a9.98,9.98,0,0,1-.506-2.4H69.014c.264.748.616,1.782.88,2.6L72.248-1.8a14.729,14.729,0,0,1,.484,1.672h1.54a12.493,12.493,0,0,1,.462-1.65L76.868-8.14c.066-.22.242-.814.418-1.43.22.814.33,1.276.374,1.386l2.156,6.4a14.52,14.52,0,0,1,.44,1.65ZM92.62.154c3.542,0,5.83-2.464,5.83-6.226,0-3.784-2.266-6.2-5.852-6.2s-5.874,2.42-5.874,6.226S89.012.154,92.62.154Zm.022-11.044c2.53,0,4.114,1.848,4.114,4.818s-1.584,4.8-4.158,4.8-4.18-1.826-4.18-4.818C88.418-9.064,90.024-10.89,92.642-10.89Zm15.994-1.1a10.1,10.1,0,0,0-1.958-.2,4.385,4.385,0,0,0-2.64.77,3.858,3.858,0,0,0-1.21,1.342,6.4,6.4,0,0,0,.022-.66V-11.99h-1.826a15.944,15.944,0,0,1,.154,2.486v6.886a20.074,20.074,0,0,1-.154,2.486H103A17.212,17.212,0,0,1,102.85-2.6V-7.084a3.622,3.622,0,0,1,.814-2.2,3.247,3.247,0,0,1,2.706-1.342,5.218,5.218,0,0,1,1.782.33Zm1.848-4.862a15.944,15.944,0,0,1,.154,2.486V-2.618a16.324,16.324,0,0,1-.154,2.486h1.958a16.405,16.405,0,0,1-.154-2.464V-4.444l1.87-1.782,2.926,4a9.4,9.4,0,0,1,1.386,2.09h2.508a20.281,20.281,0,0,1-1.914-2.31l-3.718-4.8,3.058-2.838a4.821,4.821,0,0,1,.352-.352c.308-.308.572-.55.792-.748.594-.528.594-.528.9-.814h-2.618a9.537,9.537,0,0,1-1.562,1.738L112.288-6.4v-7.964a15.76,15.76,0,0,1,.154-2.486Z" transform="translate(280 1608)" fill="#1a1919"/>
    <path id="線_5" data-name="線 5" d="M2.5,22h-5V0h5Z" transform="translate(260 1589)" fill="#707070"/>
  </g>
</svg>
