<svg xmlns="http://www.w3.org/2000/svg" width="681.18" height="215.38" viewBox="0 0 681.18 215.38">
  <g id="グループ_3" data-name="グループ 3" transform="translate(-342.54 -348.84)">
    <path id="パス_8" data-name="パス 8" d="M1.54-15.32a11.966,11.966,0,0,1,.16,2.24V-2.36A12.1,12.1,0,0,1,1.54-.12h1.9a12.387,12.387,0,0,1-.18-2.24V-13.08a12.544,12.544,0,0,1,.18-2.24Zm12.7,1.4h3.1a14.384,14.384,0,0,1,2.36.14v-1.68a14.067,14.067,0,0,1-2.36.14H9.54a14.1,14.1,0,0,1-2.28-.14v1.68a14.376,14.376,0,0,1,2.3-.14h3.12V-2.38a11.925,11.925,0,0,1-.16,2.26H14.4a12.334,12.334,0,0,1-.16-2.26Zm17.92-1.4a11.966,11.966,0,0,1,.16,2.24V-2.36a12.1,12.1,0,0,1-.16,2.24h1.9a12.387,12.387,0,0,1-.18-2.24V-13.08a12.544,12.544,0,0,1,.18-2.24Zm17.44,3.7a4.62,4.62,0,0,0-.88-2.12,5.271,5.271,0,0,0-4.42-1.84c-3.1,0-5.12,1.62-5.12,4.14a3.415,3.415,0,0,0,1.86,3.16,9.071,9.071,0,0,0,2.72.92c2.42.54,2.64.6,3.3.98a2.285,2.285,0,0,1,1.16,2.14c0,1.86-1.44,2.98-3.82,2.98a4.049,4.049,0,0,1-3.34-1.38,3.115,3.115,0,0,1-.62-1.98L38.7-4.4a5.154,5.154,0,0,0,.94,2.64c.92,1.24,2.58,1.9,4.82,1.9,3.44,0,5.38-1.6,5.38-4.42,0-2.32-1.28-3.54-4.48-4.22a14.642,14.642,0,0,1-2.86-.72,2.355,2.355,0,0,1-1.74-2.26c0-1.62,1.44-2.72,3.5-2.72a3.71,3.71,0,0,1,2.96,1.16,3.266,3.266,0,0,1,.7,1.66ZM76.36-.12a19.885,19.885,0,0,1-1.06-2.3L70.82-13.46a10.815,10.815,0,0,1-.68-1.86H68.12a11.387,11.387,0,0,1-.64,1.86L63-2.42a12.767,12.767,0,0,1-1.08,2.3H64a11.182,11.182,0,0,1,.62-2.04l1.04-2.58h6.98l1.04,2.58A14.358,14.358,0,0,1,74.3-.12Zm-4.2-6H66.14l2.56-6.6c.04-.08.1-.3.22-.62.04-.14.12-.36.22-.66.38,1.1.38,1.12.44,1.28ZM90.58-7.34h4.68a13.941,13.941,0,0,1,2.28.14V-8.88a15.3,15.3,0,0,1-2.28.14H90.58V-13.9h5.76a14.05,14.05,0,0,1,2.3.14v-1.7a15.583,15.583,0,0,1-2.3.14h-5.3c-.96,0-1.5-.02-2.2-.06A13.912,13.912,0,0,1,89-13.1V-2.46a12.577,12.577,0,0,1-.16,2.34h1.9a12.577,12.577,0,0,1-.16-2.34ZM115.12-.12a18.367,18.367,0,0,1-.9-1.86c-.62-1.38-1.1-2.42-1.58-3.36-.72-1.42-1.22-1.96-2.04-2.2a4.112,4.112,0,0,0,2.16-1,3.61,3.61,0,0,0,1.2-2.94c0-2.48-1.6-3.84-4.5-3.84h-4.4c-.92,0-1.48-.02-2.18-.06a14.323,14.323,0,0,1,.16,2.3V-2.36a12.1,12.1,0,0,1-.16,2.24h1.86a12.059,12.059,0,0,1-.16-2.26V-7.06h3.7c1.6,0,2.38.78,3.54,3.52A13.945,13.945,0,0,1,113-.12ZM104.58-8.44v-5.5h4.86c1.9,0,2.9.92,2.9,2.62a2.639,2.639,0,0,1-.76,2.02,3.193,3.193,0,0,1-2.26.86ZM129.7-1.66a14.812,14.812,0,0,1-2.22.14h-6.34V-7.4h5.26a13.566,13.566,0,0,1,2.24.14V-8.94a15.647,15.647,0,0,1-2.24.14h-5.26v-5.12h6.16a14.054,14.054,0,0,1,2.24.14v-1.68a14.913,14.913,0,0,1-2.24.14h-5.7c-.96,0-1.5-.02-2.2-.06a14.74,14.74,0,0,1,.16,2.28V-2.44a13.767,13.767,0,0,1-.16,2.38c.68-.04,1.24-.06,2.2-.06h5.86a13.1,13.1,0,0,1,2.24.14Zm14.86,0a14.812,14.812,0,0,1-2.22.14H136V-7.4h5.26a13.566,13.566,0,0,1,2.24.14V-8.94a15.647,15.647,0,0,1-2.24.14H136v-5.12h6.16a14.054,14.054,0,0,1,2.24.14v-1.68a14.913,14.913,0,0,1-2.24.14h-5.7c-.96,0-1.5-.02-2.2-.06a14.739,14.739,0,0,1,.16,2.28V-2.44a13.766,13.766,0,0,1-.16,2.38c.68-.04,1.24-.06,2.2-.06h5.86a13.1,13.1,0,0,1,2.24.14ZM157.14-.12a13.687,13.687,0,0,1,2.32.14v-1.7a15.871,15.871,0,0,1-2.32.14h-6.3V-12.96a12.813,12.813,0,0,1,.16-2.36h-1.88a12.95,12.95,0,0,1,.16,2.36V-2.44a14.065,14.065,0,0,1-.16,2.38c.7-.04,1.26-.06,2.18-.06Zm19.2,0a19.885,19.885,0,0,1-1.06-2.3L170.8-13.46a10.815,10.815,0,0,1-.68-1.86H168.1a11.385,11.385,0,0,1-.64,1.86L162.98-2.42a12.767,12.767,0,0,1-1.08,2.3h2.08a11.182,11.182,0,0,1,.62-2.04l1.04-2.58h6.98l1.04,2.58a14.357,14.357,0,0,1,.62,2.04Zm-4.2-6h-6.02l2.56-6.6c.04-.08.1-.3.22-.62.04-.14.12-.36.22-.66.38,1.1.38,1.12.44,1.28Zm8.06-9.2a12.525,12.525,0,0,1,.16,2.24V-2.5a12.774,12.774,0,0,1-.16,2.38h1.86a12.774,12.774,0,0,1-.16-2.38v-8.54c0-.52-.04-1.5-.12-2.44.28.54.94,1.68,1.1,1.92l6.42,9.64a13.527,13.527,0,0,1,1.04,1.8h2.18a11.436,11.436,0,0,1-.16-2.24V-13.02a12.523,12.523,0,0,1,.16-2.3h-1.86a12.661,12.661,0,0,1,.16,2.3v8.48c0,.18.04,1.06.12,2.66-.48-.86-1.08-1.84-1.3-2.18l-6.32-9.46a10.431,10.431,0,0,1-1.02-1.8Zm29.84,3.86a6.118,6.118,0,0,0-1.56-2.52A6.1,6.1,0,0,0,204-15.6a6.317,6.317,0,0,0-4.58,1.7,8.546,8.546,0,0,0-2.28,6.22A8.507,8.507,0,0,0,199.3-1.6,6.368,6.368,0,0,0,203.98.16a6.206,6.206,0,0,0,5.18-2.32,6.461,6.461,0,0,0,1.08-2.38l-1.66-.4a4.469,4.469,0,0,1-.8,2,4.557,4.557,0,0,1-3.74,1.68c-3.22,0-5.28-2.52-5.28-6.48,0-3.98,2.04-6.46,5.28-6.46a4.376,4.376,0,0,1,3.46,1.44,4.662,4.662,0,0,1,.94,1.76Zm15.02,9.8a14.812,14.812,0,0,1-2.22.14H216.5V-7.4h5.26a13.566,13.566,0,0,1,2.24.14V-8.94a15.647,15.647,0,0,1-2.24.14H216.5v-5.12h6.16a14.054,14.054,0,0,1,2.24.14v-1.68a14.913,14.913,0,0,1-2.24.14h-5.7c-.96,0-1.5-.02-2.2-.06a14.739,14.739,0,0,1,.16,2.28V-2.44a13.766,13.766,0,0,1-.16,2.38c.68-.04,1.24-.06,2.2-.06h5.86a13.1,13.1,0,0,1,2.24.14Zm13.38-.78a14.065,14.065,0,0,1-.16,2.38c.7-.04,1.24-.06,2.2-.06h3.38a6.7,6.7,0,0,0,4.86-1.78,8.084,8.084,0,0,0,2.14-5.92c0-4.78-2.54-7.5-7-7.5h-3.38c-.96,0-1.5-.02-2.2-.06a14.4,14.4,0,0,1,.16,2.28Zm1.56.92v-12.4h3.9a4.929,4.929,0,0,1,3.76,1.36,6.462,6.462,0,0,1,1.58,4.74,6.812,6.812,0,0,1-1.68,4.88,4.885,4.885,0,0,1-3.74,1.42Zm25.74-.14a14.811,14.811,0,0,1-2.22.14h-6.34V-7.4h5.26a13.566,13.566,0,0,1,2.24.14V-8.94a15.647,15.647,0,0,1-2.24.14h-5.26v-5.12h6.16a14.054,14.054,0,0,1,2.24.14v-1.68a14.913,14.913,0,0,1-2.24.14h-5.7c-.96,0-1.5-.02-2.2-.06a14.739,14.739,0,0,1,.16,2.28V-2.44a13.766,13.766,0,0,1-.16,2.38c.68-.04,1.24-.06,2.2-.06h5.86a13.1,13.1,0,0,1,2.24.14Zm15.02-9.96a4.62,4.62,0,0,0-.88-2.12,5.271,5.271,0,0,0-4.42-1.84c-3.1,0-5.12,1.62-5.12,4.14a3.415,3.415,0,0,0,1.86,3.16,9.071,9.071,0,0,0,2.72.92c2.42.54,2.64.6,3.3.98a2.285,2.285,0,0,1,1.16,2.14c0,1.86-1.44,2.98-3.82,2.98a4.049,4.049,0,0,1-3.34-1.38,3.115,3.115,0,0,1-.62-1.98l-1.74.22a5.153,5.153,0,0,0,.94,2.64c.92,1.24,2.58,1.9,4.82,1.9,3.44,0,5.38-1.6,5.38-4.42,0-2.32-1.28-3.54-4.48-4.22a14.643,14.643,0,0,1-2.86-.72,2.355,2.355,0,0,1-1.74-2.26c0-1.62,1.44-2.72,3.5-2.72a3.71,3.71,0,0,1,2.96,1.16,3.266,3.266,0,0,1,.7,1.66Zm4.92-3.7a11.967,11.967,0,0,1,.16,2.24V-2.36a12.1,12.1,0,0,1-.16,2.24h1.9a12.387,12.387,0,0,1-.18-2.24V-13.08a12.545,12.545,0,0,1,.18-2.24Zm17.56,8.94v4.02a7.131,7.131,0,0,1-4.04,1.12,4.851,4.851,0,0,1-3.72-1.44,7.3,7.3,0,0,1-1.68-5.08c0-4.02,2.02-6.48,5.32-6.48a4.026,4.026,0,0,1,4.2,2.88l1.56-.52a5.689,5.689,0,0,0-1.46-2.28,6.084,6.084,0,0,0-4.28-1.48c-4.26,0-6.98,3.06-6.98,7.88a8.4,8.4,0,0,0,2.46,6.38A6.693,6.693,0,0,0,299.18.1a11.566,11.566,0,0,0,2.98-.38,10.409,10.409,0,0,0,2.72-1.24,12.827,12.827,0,0,1-.14-2.22V-5.58a13.72,13.72,0,0,1,.14-2.26,20.582,20.582,0,0,1-2.12.08h-.58A12.279,12.279,0,0,1,300-7.88v1.62a10.807,10.807,0,0,1,2.06-.12Zm6.54-8.94a12.522,12.522,0,0,1,.16,2.24V-2.5a12.772,12.772,0,0,1-.16,2.38h1.86a12.774,12.774,0,0,1-.16-2.38v-8.54c0-.52-.04-1.5-.12-2.44.28.54.94,1.68,1.1,1.92l6.42,9.64a13.527,13.527,0,0,1,1.04,1.8h2.18a11.436,11.436,0,0,1-.16-2.24V-13.02a12.523,12.523,0,0,1,.16-2.3h-1.86a12.662,12.662,0,0,1,.16,2.3v8.48c0,.18.04,1.06.12,2.66-.48-.86-1.08-1.84-1.3-2.18l-6.32-9.46a10.429,10.429,0,0,1-1.02-1.8Zm17.44,0a11.967,11.967,0,0,1,.16,2.24V-2.36a12.1,12.1,0,0,1-.16,2.24h1.9a12.387,12.387,0,0,1-.18-2.24V-13.08a12.545,12.545,0,0,1,.18-2.24ZM344.5-1.66a14.811,14.811,0,0,1-2.22.14h-6.34V-7.4h5.26a13.566,13.566,0,0,1,2.24.14V-8.94a15.647,15.647,0,0,1-2.24.14h-5.26v-5.12h6.16a14.054,14.054,0,0,1,2.24.14v-1.68a14.913,14.913,0,0,1-2.24.14h-5.7c-.96,0-1.5-.02-2.2-.06a14.74,14.74,0,0,1,.16,2.28V-2.44a13.767,13.767,0,0,1-.16,2.38c.68-.04,1.24-.06,2.2-.06h5.86a13.1,13.1,0,0,1,2.24.14ZM361.3-.12a18.365,18.365,0,0,1-.9-1.86c-.62-1.38-1.1-2.42-1.58-3.36-.72-1.42-1.22-1.96-2.04-2.2a4.112,4.112,0,0,0,2.16-1,3.61,3.61,0,0,0,1.2-2.94c0-2.48-1.6-3.84-4.5-3.84h-4.4c-.92,0-1.48-.02-2.18-.06a14.323,14.323,0,0,1,.16,2.3V-2.36a12.1,12.1,0,0,1-.16,2.24h1.86a12.06,12.06,0,0,1-.16-2.26V-7.06h3.7c1.6,0,2.38.78,3.54,3.52a13.944,13.944,0,0,1,1.18,3.42ZM350.76-8.44v-5.5h4.86c1.9,0,2.9.92,2.9,2.62a2.639,2.639,0,0,1-.76,2.02,3.193,3.193,0,0,1-2.26.86Zm16.68-6.88h-2v1.98h1.16c0,1.26-.14,1.56-.96,1.92l.54.68c1.02-.62,1.26-1.1,1.26-2.6Zm15.4,3.7a4.62,4.62,0,0,0-.88-2.12,5.271,5.271,0,0,0-4.42-1.84c-3.1,0-5.12,1.62-5.12,4.14a3.415,3.415,0,0,0,1.86,3.16,9.071,9.071,0,0,0,2.72.92c2.42.54,2.64.6,3.3.98a2.285,2.285,0,0,1,1.16,2.14c0,1.86-1.44,2.98-3.82,2.98a4.049,4.049,0,0,1-3.34-1.38,3.115,3.115,0,0,1-.62-1.98l-1.74.22a5.153,5.153,0,0,0,.94,2.64c.92,1.24,2.58,1.9,4.82,1.9,3.44,0,5.38-1.6,5.38-4.42,0-2.32-1.28-3.54-4.48-4.22a14.643,14.643,0,0,1-2.86-.72A2.355,2.355,0,0,1,374-11.48c0-1.62,1.44-2.72,3.5-2.72a3.71,3.71,0,0,1,2.96,1.16,3.266,3.266,0,0,1,.7,1.66ZM410.4-.12c-.56-.48-1.24-1.12-1.9-1.78l-1.3-1.32a13.432,13.432,0,0,0,2.28-4.86l-1.4-.54a10.194,10.194,0,0,1-1.84,4.44l-4.18-4.2a8.591,8.591,0,0,0,2.62-1.42,3.316,3.316,0,0,0,1.16-2.66c0-1.86-1.64-3.14-4.04-3.14a3.947,3.947,0,0,0-3.52,1.58,2.839,2.839,0,0,0-.52,1.68,3.755,3.755,0,0,0,1.32,2.82l.68.72a7.445,7.445,0,0,0-2.58,1.62,4.246,4.246,0,0,0-1.32,3.14A4.044,4.044,0,0,0,397-1.12a5.077,5.077,0,0,0,3.76,1.3,7.962,7.962,0,0,0,3.02-.58,6.946,6.946,0,0,0,2.44-1.72l.46.48a16.47,16.47,0,0,1,1.26,1.52ZM400.22-10.26a2.607,2.607,0,0,1-.94-1.98c0-1.3.98-2.1,2.54-2.1s2.52.78,2.52,2.06a2.254,2.254,0,0,1-1.16,1.96,11.23,11.23,0,0,1-2.08.96Zm5.04,7.18a6.377,6.377,0,0,1-1.9,1.38,5.959,5.959,0,0,1-2.48.54c-2.14,0-3.5-1.16-3.5-2.98a3.056,3.056,0,0,1,1-2.28A6.9,6.9,0,0,1,400.7-7.8Zm28.06,1.42a14.811,14.811,0,0,1-2.22.14h-6.34V-7.4h5.26a13.566,13.566,0,0,1,2.24.14V-8.94a15.647,15.647,0,0,1-2.24.14h-5.26v-5.12h6.16a14.054,14.054,0,0,1,2.24.14v-1.68a14.913,14.913,0,0,1-2.24.14h-5.7c-.96,0-1.5-.02-2.2-.06a14.74,14.74,0,0,1,.16,2.28V-2.44a13.767,13.767,0,0,1-.16,2.38c.68-.04,1.24-.06,2.2-.06h5.86a13.1,13.1,0,0,1,2.24.14Zm4.6-13.66a12.522,12.522,0,0,1,.16,2.24V-2.5a12.772,12.772,0,0,1-.16,2.38h1.86a12.774,12.774,0,0,1-.16-2.38v-8.54c0-.52-.04-1.5-.12-2.44.28.54.94,1.68,1.1,1.92l6.42,9.64a13.527,13.527,0,0,1,1.04,1.8h2.18a11.436,11.436,0,0,1-.16-2.24V-13.02a12.523,12.523,0,0,1,.16-2.3h-1.86a12.662,12.662,0,0,1,.16,2.3v8.48c0,.18.04,1.06.12,2.66-.48-.86-1.08-1.84-1.3-2.18l-6.32-9.46a10.429,10.429,0,0,1-1.02-1.8Zm28.02,8.94v4.02a7.131,7.131,0,0,1-4.04,1.12,4.851,4.851,0,0,1-3.72-1.44,7.3,7.3,0,0,1-1.68-5.08c0-4.02,2.02-6.48,5.32-6.48a4.026,4.026,0,0,1,4.2,2.88l1.56-.52a5.689,5.689,0,0,0-1.46-2.28,6.084,6.084,0,0,0-4.28-1.48c-4.26,0-6.98,3.06-6.98,7.88a8.4,8.4,0,0,0,2.46,6.38A6.693,6.693,0,0,0,461.88.1a11.566,11.566,0,0,0,2.98-.38,10.409,10.409,0,0,0,2.72-1.24,12.827,12.827,0,0,1-.14-2.22V-5.58a13.72,13.72,0,0,1,.14-2.26,20.582,20.582,0,0,1-2.12.08h-.58a12.279,12.279,0,0,1-2.18-.12v1.62a10.807,10.807,0,0,1,2.06-.12Zm6.5-8.94a11.967,11.967,0,0,1,.16,2.24V-2.36a12.1,12.1,0,0,1-.16,2.24h1.9a12.387,12.387,0,0,1-.18-2.24V-13.08a12.545,12.545,0,0,1,.18-2.24Zm7.02,0a12.522,12.522,0,0,1,.16,2.24V-2.5a12.772,12.772,0,0,1-.16,2.38h1.86a12.774,12.774,0,0,1-.16-2.38v-8.54c0-.52-.04-1.5-.12-2.44.28.54.94,1.68,1.1,1.92l6.42,9.64a13.527,13.527,0,0,1,1.04,1.8h2.18a11.436,11.436,0,0,1-.16-2.24V-13.02a12.523,12.523,0,0,1,.16-2.3h-1.86a12.662,12.662,0,0,1,.16,2.3v8.48c0,.18.04,1.06.12,2.66-.48-.86-1.08-1.84-1.3-2.18l-6.32-9.46a10.429,10.429,0,0,1-1.02-1.8ZM507.2-1.66a14.811,14.811,0,0,1-2.22.14h-6.34V-7.4h5.26a13.566,13.566,0,0,1,2.24.14V-8.94a15.647,15.647,0,0,1-2.24.14h-5.26v-5.12h6.16a14.054,14.054,0,0,1,2.24.14v-1.68a14.913,14.913,0,0,1-2.24.14h-5.7c-.96,0-1.5-.02-2.2-.06a14.74,14.74,0,0,1,.16,2.28V-2.44a13.767,13.767,0,0,1-.16,2.38c.68-.04,1.24-.06,2.2-.06h5.86a13.1,13.1,0,0,1,2.24.14Zm14.86,0a14.811,14.811,0,0,1-2.22.14H513.5V-7.4h5.26a13.566,13.566,0,0,1,2.24.14V-8.94a15.647,15.647,0,0,1-2.24.14H513.5v-5.12h6.16a14.055,14.055,0,0,1,2.24.14v-1.68a14.914,14.914,0,0,1-2.24.14h-5.7c-.96,0-1.5-.02-2.2-.06a14.74,14.74,0,0,1,.16,2.28V-2.44a13.767,13.767,0,0,1-.16,2.38c.68-.04,1.24-.06,2.2-.06h5.86a13.1,13.1,0,0,1,2.24.14Zm16.8,1.54a18.351,18.351,0,0,1-.9-1.86c-.62-1.38-1.1-2.42-1.58-3.36-.72-1.42-1.22-1.96-2.04-2.2a4.112,4.112,0,0,0,2.16-1,3.61,3.61,0,0,0,1.2-2.94c0-2.48-1.6-3.84-4.5-3.84h-4.4c-.92,0-1.48-.02-2.18-.06a14.323,14.323,0,0,1,.16,2.3V-2.36a12.1,12.1,0,0,1-.16,2.24h1.86a12.059,12.059,0,0,1-.16-2.26V-7.06h3.7c1.6,0,2.38.78,3.54,3.52a13.943,13.943,0,0,1,1.18,3.42ZM528.32-8.44v-5.5h4.86c1.9,0,2.9.92,2.9,2.62a2.639,2.639,0,0,1-.76,2.02,3.193,3.193,0,0,1-2.26.86ZM553.68-.12a12.2,12.2,0,0,1-.16-2.26V-6.32h4.46c3.12,0,4.92-1.7,4.92-4.64,0-2.78-1.74-4.36-4.82-4.36H554c-.92,0-1.48-.02-2.2-.06a14.741,14.741,0,0,1,.16,2.28V-2.36a12.383,12.383,0,0,1-.16,2.24Zm-.16-7.58v-6.24h4.46c2.16,0,3.32,1.06,3.32,3.06,0,2.04-1.2,3.18-3.32,3.18Zm19.94-7.92c-4.2,0-6.92,3.1-6.92,7.9,0,4.82,2.68,7.9,6.9,7.9s6.92-3.08,6.92-7.9S577.68-15.62,573.46-15.62Zm.02,14.38c-3.2,0-5.32-2.58-5.32-6.5s2.1-6.48,5.3-6.48a4.877,4.877,0,0,1,3.5,1.38,7.033,7.033,0,0,1,1.76,5.12,7.16,7.16,0,0,1-1.78,5.12A4.735,4.735,0,0,1,573.48-1.24Zm23.7,1.12a18.351,18.351,0,0,1-.9-1.86c-.62-1.38-1.1-2.42-1.58-3.36-.72-1.42-1.22-1.96-2.04-2.2a4.112,4.112,0,0,0,2.16-1,3.61,3.61,0,0,0,1.2-2.94c0-2.48-1.6-3.84-4.5-3.84h-4.4c-.92,0-1.48-.02-2.18-.06a14.323,14.323,0,0,1,.16,2.3V-2.36a12.1,12.1,0,0,1-.16,2.24h1.86a12.059,12.059,0,0,1-.16-2.26V-7.06h3.7c1.6,0,2.38.78,3.54,3.52a13.943,13.943,0,0,1,1.18,3.42ZM586.64-8.44v-5.5h4.86c1.9,0,2.9.92,2.9,2.62a2.639,2.639,0,0,1-.76,2.02,3.193,3.193,0,0,1-2.26.86Zm20.54-5.48h3.1a14.384,14.384,0,0,1,2.36.14v-1.68a14.067,14.067,0,0,1-2.36.14h-7.8a14.1,14.1,0,0,1-2.28-.14v1.68a14.375,14.375,0,0,1,2.3-.14h3.12V-2.38a11.925,11.925,0,0,1-.16,2.26h1.88a12.335,12.335,0,0,1-.16-2.26Zm11,6.58h4.68a13.941,13.941,0,0,1,2.28.14V-8.88a15.3,15.3,0,0,1-2.28.14h-4.68V-13.9h5.76a14.051,14.051,0,0,1,2.3.14v-1.7a15.584,15.584,0,0,1-2.3.14h-5.3c-.96,0-1.5-.02-2.2-.06a13.913,13.913,0,0,1,.16,2.28V-2.46a12.577,12.577,0,0,1-.16,2.34h1.9a12.578,12.578,0,0,1-.16-2.34Zm18.72-8.28c-4.2,0-6.92,3.1-6.92,7.9,0,4.82,2.68,7.9,6.9,7.9s6.92-3.08,6.92-7.9S641.12-15.62,636.9-15.62Zm.02,14.38c-3.2,0-5.32-2.58-5.32-6.5s2.1-6.48,5.3-6.48a4.877,4.877,0,0,1,3.5,1.38,7.033,7.033,0,0,1,1.76,5.12,7.16,7.16,0,0,1-1.78,5.12A4.735,4.735,0,0,1,636.92-1.24ZM656.4-.12a13.687,13.687,0,0,1,2.32.14v-1.7a15.871,15.871,0,0,1-2.32.14h-6.3V-12.96a12.813,12.813,0,0,1,.16-2.36h-1.88a12.951,12.951,0,0,1,.16,2.36V-2.44a14.066,14.066,0,0,1-.16,2.38c.7-.04,1.26-.06,2.18-.06Zm6.02-15.2a11.966,11.966,0,0,1,.16,2.24V-2.36a12.1,12.1,0,0,1-.16,2.24h1.9a12.387,12.387,0,0,1-.18-2.24V-13.08a12.545,12.545,0,0,1,.18-2.24Zm13.4-.3c-4.2,0-6.92,3.1-6.92,7.9,0,4.82,2.68,7.9,6.9,7.9s6.92-3.08,6.92-7.9S680.04-15.62,675.82-15.62Zm.02,14.38c-3.2,0-5.32-2.58-5.32-6.5s2.1-6.48,5.3-6.48a4.877,4.877,0,0,1,3.5,1.38,7.033,7.033,0,0,1,1.76,5.12A7.16,7.16,0,0,1,679.3-2.6,4.735,4.735,0,0,1,675.84-1.24Z" transform="translate(341 468)" fill="#1a1919"/>
    <path id="パス_9" data-name="パス 9" d="M7.98-2.22a10.329,10.329,0,0,1,.74,2.1h1.42A11.33,11.33,0,0,1,10.9-2.2l4.08-8.98a13.17,13.17,0,0,0,.86-2.44c-.08.82-.14,1.9-.14,2.46v8.68a13.377,13.377,0,0,1-.16,2.36h1.82a12.675,12.675,0,0,1-.16-2.36V-12.94a13.62,13.62,0,0,1,.16-2.38h-2.3a10.147,10.147,0,0,1-.68,1.98L9.46-2.32,4.52-13.34a9.578,9.578,0,0,1-.66-1.98H1.54a13.767,13.767,0,0,1,.16,2.38V-2.48A13.233,13.233,0,0,1,1.54-.12H3.36A12.675,12.675,0,0,1,3.2-2.48v-8.56c0-.48-.08-1.72-.14-2.58a18.439,18.439,0,0,0,.9,2.48ZM25.86-.44l-.92,2.2a1.549,1.549,0,0,1-1.48,1.1,2.63,2.63,0,0,1-1.22-.34L21.82,4a7.7,7.7,0,0,0,1.64.22,2.725,2.725,0,0,0,2.82-1.86L30.76-8.56c.52-1.26.86-2.04.98-2.34H29.88a9.452,9.452,0,0,1-.66,2.12L26.64-2.06l-2.9-6.72a11.078,11.078,0,0,1-.68-2.12H21.1c.2.36.2.36,1.1,2.34ZM45.5-9.62v7.24a16.129,16.129,0,0,1-.14,2.26h1.8a14.913,14.913,0,0,1-.14-2.24V-9.62h1a12.752,12.752,0,0,1,2.12.12v-1.52a14.093,14.093,0,0,1-2.12.12h-1V-12a2.863,2.863,0,0,1,.3-1.68,1.575,1.575,0,0,1,1.36-.54,3.061,3.061,0,0,1,1.66.46l.42-1.34a5.473,5.473,0,0,0-2.12-.4,3.132,3.132,0,0,0-2.52.98,3.539,3.539,0,0,0-.62,2.44v1.18h-.82a11.334,11.334,0,0,1-1.82-.12V-9.5a13.036,13.036,0,0,1,1.82-.12ZM61.52-.12h1.62a12.788,12.788,0,0,1-.16-2.2V-7.94c0-2.16-1.36-3.28-4-3.28a5.036,5.036,0,0,0-3.52,1.14A3.958,3.958,0,0,0,54.34-8.3l1.56.34a2.811,2.811,0,0,1,.62-1.16A3.28,3.28,0,0,1,59-9.98c1.66,0,2.52.7,2.52,2.06v1.16a16.329,16.329,0,0,0-4.6.52c-1.86.52-2.86,1.68-2.86,3.28,0,1.9,1.34,3.04,3.54,3.04a5.9,5.9,0,0,0,2.08-.4,5.212,5.212,0,0,0,1.84-1.22Zm0-4.16a2.18,2.18,0,0,1-.62,1.72,4.522,4.522,0,0,1-3.2,1.42c-1.3,0-2.12-.7-2.12-1.8A2.124,2.124,0,0,1,57.1-5a12.352,12.352,0,0,1,4.42-.58ZM66.7-10.9c.42.88.62,1.32,1,2.2l2.78,6.74a12.018,12.018,0,0,1,.66,1.84h1.58a9.639,9.639,0,0,1,.64-1.84l2.8-6.74a22.779,22.779,0,0,1,.98-2.2H75.26a9.221,9.221,0,0,1-.6,1.96l-2.28,5.9c-.18.44-.3.78-.46,1.28-.12-.4-.34-1.04-.44-1.3L69.2-8.94a10.61,10.61,0,0,1-.62-1.96ZM85.64.14c3.22,0,5.3-2.24,5.3-5.66,0-3.44-2.06-5.64-5.32-5.64s-5.34,2.2-5.34,5.66S82.36.14,85.64.14ZM85.66-9.9c2.3,0,3.74,1.68,3.74,4.38s-1.44,4.36-3.78,4.36-3.8-1.66-3.8-4.38C81.82-8.24,83.28-9.9,85.66-9.9Zm16.54-1a9.184,9.184,0,0,0-1.78-.18,3.986,3.986,0,0,0-2.4.7,3.507,3.507,0,0,0-1.1,1.22,5.815,5.815,0,0,0,.02-.6V-10.9H95.28a14.5,14.5,0,0,1,.14,2.26v6.26a18.25,18.25,0,0,1-.14,2.26h1.8a15.648,15.648,0,0,1-.14-2.24V-6.44a3.292,3.292,0,0,1,.74-2,2.952,2.952,0,0,1,2.46-1.22,4.744,4.744,0,0,1,1.62.3Zm3.66-4.42v1.78h1.94v-1.78Zm.06,4.42a14.666,14.666,0,0,1,.14,2.26v6.26a17.356,17.356,0,0,1-.14,2.26h1.8a15.747,15.747,0,0,1-.14-2.26V-8.64a14.327,14.327,0,0,1,.14-2.26Zm7.98-2.98a15.175,15.175,0,0,1,.14,2.22v.76h-.8a9.067,9.067,0,0,1-1.8-.12V-9.5a13.382,13.382,0,0,1,1.8-.12h.8v7.16a2.538,2.538,0,0,0,.56,1.92,2.738,2.738,0,0,0,1.96.62,5.382,5.382,0,0,0,2.26-.46l-.44-1.4a2.771,2.771,0,0,1-1.58.52,1.354,1.354,0,0,1-.98-.34c-.18-.18-.26-.48-.26-1.06V-9.62h.96a12.011,12.011,0,0,1,2.04.12v-1.52a12.292,12.292,0,0,1-2.04.12h-.96v-.76a14.458,14.458,0,0,1,.14-2.22Zm18.02,8.6c-.04-.54-.12-1.32-.14-1.54a4.728,4.728,0,0,0-4.84-4.34c-3,0-4.96,2.24-4.96,5.66,0,3.46,1.98,5.66,5.12,5.66a5,5,0,0,0,3.62-1.4,4.782,4.782,0,0,0,1.1-1.66l-1.4-.56a3.269,3.269,0,0,1-3.3,2.34,3.346,3.346,0,0,1-2.82-1.36,4.531,4.531,0,0,1-.8-2.8Zm-8.36-1.26a4.184,4.184,0,0,1,.5-1.62A3.131,3.131,0,0,1,126.9-9.9a3.244,3.244,0,0,1,2.36.9,3.651,3.651,0,0,1,1.06,2.46ZM155.3-.12a11.822,11.822,0,0,1,.42-1.5l2.16-6.92c.36-1.14.62-1.94.78-2.36h-1.82a10.2,10.2,0,0,1-.44,2.18l-1.5,5.08c-.04.12-.14.58-.32,1.36-.04-.14-.04-.14-.12-.44-.08-.28-.2-.72-.26-.9l-1.92-5.76a10.917,10.917,0,0,1-.4-1.52h-1.34a7.181,7.181,0,0,1-.4,1.52l-1.9,5.66c-.06.18-.3.98-.42,1.44-.14-.7-.26-1.12-.36-1.46L146-8.72a9.074,9.074,0,0,1-.46-2.18H143.7c.24.68.56,1.62.8,2.36l2.14,6.9a13.4,13.4,0,0,1,.44,1.52h1.4a11.357,11.357,0,0,1,.42-1.5l1.94-5.78c.06-.2.22-.74.38-1.3.2.74.3,1.16.34,1.26l1.96,5.82a13.2,13.2,0,0,1,.4,1.5Zm11.86.26c3.22,0,5.3-2.24,5.3-5.66,0-3.44-2.06-5.64-5.32-5.64s-5.34,2.2-5.34,5.66S163.88.14,167.16.14Zm.02-10.04c2.3,0,3.74,1.68,3.74,4.38s-1.44,4.36-3.78,4.36-3.8-1.66-3.8-4.38C163.34-8.24,164.8-9.9,167.18-9.9Zm16.54-1a9.184,9.184,0,0,0-1.78-.18,3.986,3.986,0,0,0-2.4.7,3.507,3.507,0,0,0-1.1,1.22,5.815,5.815,0,0,0,.02-.6V-10.9H176.8a14.494,14.494,0,0,1,.14,2.26v6.26a18.248,18.248,0,0,1-.14,2.26h1.8a15.646,15.646,0,0,1-.14-2.24V-6.44a3.292,3.292,0,0,1,.74-2,2.952,2.952,0,0,1,2.46-1.22,4.744,4.744,0,0,1,1.62.3ZM195.86-.12h1.6a15.585,15.585,0,0,1-.14-2.3V-13.06a16.326,16.326,0,0,1,.14-2.26H195.7a15.663,15.663,0,0,1,.14,2.28v2.68a6.052,6.052,0,0,0,.06,1.06l.02.3a4.591,4.591,0,0,0-4.1-2.12c-3,0-4.92,2.18-4.92,5.6,0,3.48,1.88,5.6,4.96,5.6a4.46,4.46,0,0,0,4.06-2.16,8.847,8.847,0,0,0-.06.98Zm-3.88-9.7a3.858,3.858,0,0,1,2.72,1.06,4.423,4.423,0,0,1,1.12,3.18c0,2.64-1.5,4.34-3.84,4.34a3.305,3.305,0,0,1-2.68-1.2,5.23,5.23,0,0,1-.82-3.12C188.48-8.22,189.8-9.82,191.98-9.82Zm18.98-5.5v1.78h1.94v-1.78Zm.06,4.42a14.667,14.667,0,0,1,.14,2.26v6.26a17.357,17.357,0,0,1-.14,2.26h1.8a15.748,15.748,0,0,1-.14-2.26V-8.64a14.327,14.327,0,0,1,.14-2.26Zm6.14,7.86a3.95,3.95,0,0,0,.64,1.58A4.693,4.693,0,0,0,221.76.1c2.74,0,4.44-1.24,4.44-3.24a2.64,2.64,0,0,0-.96-2.08,7.552,7.552,0,0,0-3.18-1.14,7.457,7.457,0,0,1-2.22-.68,1.229,1.229,0,0,1-.68-1.1c0-1.06,1.04-1.8,2.5-1.8a2.734,2.734,0,0,1,2.08.76,1.82,1.82,0,0,1,.5,1.06l1.58-.26a3.228,3.228,0,0,0-1.06-1.82,4.607,4.607,0,0,0-3.14-.96,4.382,4.382,0,0,0-3.12,1.04,2.675,2.675,0,0,0-.86,1.94,2.459,2.459,0,0,0,1.08,2.1,7.623,7.623,0,0,0,2.96,1.04,6.431,6.431,0,0,1,2.36.72,1.35,1.35,0,0,1,.62,1.24c0,1.18-1.1,1.92-2.84,1.92a3.386,3.386,0,0,1-2.32-.7,2.243,2.243,0,0,1-.7-1.46ZM239.12-11h2v-1.98h-1.16c0-1.24.14-1.54.96-1.92l-.54-.66c-1.02.62-1.26,1.1-1.26,2.58ZM242-11h2v-1.98h-1.16c0-1.24.14-1.54.96-1.92l-.54-.66c-1.02.62-1.26,1.1-1.26,2.58Zm15.6-4.32a11.967,11.967,0,0,1,.16,2.24V-2.36a12.1,12.1,0,0,1-.16,2.24h1.9a12.387,12.387,0,0,1-.18-2.24V-13.08a12.545,12.545,0,0,1,.18-2.24Zm8.3,5.7v7.24a16.128,16.128,0,0,1-.14,2.26h1.8a14.916,14.916,0,0,1-.14-2.24V-9.62h1a12.752,12.752,0,0,1,2.12.12v-1.52a14.093,14.093,0,0,1-2.12.12h-1V-12a2.863,2.863,0,0,1,.3-1.68,1.575,1.575,0,0,1,1.36-.54,3.061,3.061,0,0,1,1.66.46l.42-1.34a5.473,5.473,0,0,0-2.12-.4,3.132,3.132,0,0,0-2.52.98,3.539,3.539,0,0,0-.62,2.44v1.18h-.82a11.334,11.334,0,0,1-1.82-.12V-9.5a13.036,13.036,0,0,1,1.82-.12ZM287-.44l-.92,2.2a1.549,1.549,0,0,1-1.48,1.1,2.63,2.63,0,0,1-1.22-.34L282.96,4a7.7,7.7,0,0,0,1.64.22,2.725,2.725,0,0,0,2.82-1.86L291.9-8.56c.52-1.26.86-2.04.98-2.34h-1.86a9.453,9.453,0,0,1-.66,2.12l-2.58,6.72-2.9-6.72a11.078,11.078,0,0,1-.68-2.12h-1.96c.2.36.2.36,1.1,2.34Zm14.4.58c3.22,0,5.3-2.24,5.3-5.66,0-3.44-2.06-5.64-5.32-5.64s-5.34,2.2-5.34,5.66S298.12.14,301.4.14Zm.02-10.04c2.3,0,3.74,1.68,3.74,4.38s-1.44,4.36-3.78,4.36-3.8-1.66-3.8-4.38C297.58-8.24,299.04-9.9,301.42-9.9ZM318.9-.12h1.66a13.51,13.51,0,0,1-.16-2.26V-8.64a15.015,15.015,0,0,1,.14-2.26h-1.78a15.563,15.563,0,0,1,.14,2.26v3.86a4.671,4.671,0,0,1-.92,2A3.44,3.44,0,0,1,315.1-1.2c-1.56,0-2.42-1-2.42-2.78V-8.64a15.375,15.375,0,0,1,.14-2.26h-1.8a14.389,14.389,0,0,1,.14,2.24v4.94a4.373,4.373,0,0,0,.56,2.32,3.645,3.645,0,0,0,3.2,1.48,4.368,4.368,0,0,0,4.04-2.38,6.144,6.144,0,0,0-.06.88Zm24.28-7.94a5.4,5.4,0,0,0-.7-1.28,4.533,4.533,0,0,0-3.86-1.84c-3.06,0-5.06,2.26-5.06,5.72,0,3.42,2.02,5.6,5.16,5.6a4.606,4.606,0,0,0,3.78-1.68,5.484,5.484,0,0,0,.82-1.54l-1.5-.4a3.248,3.248,0,0,1-.44,1.02,2.956,2.956,0,0,1-2.6,1.28c-2.24,0-3.68-1.68-3.68-4.32,0-2.68,1.4-4.4,3.6-4.4a3.02,3.02,0,0,1,3.02,2.3ZM354.74-.12h1.62a12.789,12.789,0,0,1-.16-2.2V-7.94c0-2.16-1.36-3.28-4-3.28a5.036,5.036,0,0,0-3.52,1.14,3.958,3.958,0,0,0-1.12,1.78l1.56.34a2.81,2.81,0,0,1,.62-1.16,3.28,3.28,0,0,1,2.48-.86c1.66,0,2.52.7,2.52,2.06v1.16a16.329,16.329,0,0,0-4.6.52c-1.86.52-2.86,1.68-2.86,3.28,0,1.9,1.34,3.04,3.54,3.04a5.9,5.9,0,0,0,2.08-.4,5.212,5.212,0,0,0,1.84-1.22Zm0-4.16a2.18,2.18,0,0,1-.62,1.72,4.522,4.522,0,0,1-3.2,1.42c-1.3,0-2.12-.7-2.12-1.8A2.124,2.124,0,0,1,350.32-5a12.353,12.353,0,0,1,4.42-.58Zm8.18,4.16a16.128,16.128,0,0,1-.14-2.26V-6.24a4.284,4.284,0,0,1,.92-1.98,3.484,3.484,0,0,1,2.86-1.58c1.58,0,2.44.96,2.44,2.76v4.66a16.128,16.128,0,0,1-.14,2.26h1.8a13.565,13.565,0,0,1-.14-2.24V-7.3a4.079,4.079,0,0,0-.56-2.3,3.611,3.611,0,0,0-3.2-1.5,4.344,4.344,0,0,0-4.04,2.42,5.36,5.36,0,0,0,.06-.86V-10.9h-1.66a13.51,13.51,0,0,1,.16,2.26v6.26a12.761,12.761,0,0,1-.16,2.26Zm29.68,0h1.6a15.582,15.582,0,0,1-.14-2.3V-13.06a16.324,16.324,0,0,1,.14-2.26h-1.76a15.661,15.661,0,0,1,.14,2.28v2.68a6.049,6.049,0,0,0,.06,1.06l.02.3a4.591,4.591,0,0,0-4.1-2.12c-3,0-4.92,2.18-4.92,5.6,0,3.48,1.88,5.6,4.96,5.6a4.46,4.46,0,0,0,4.06-2.16,8.847,8.847,0,0,0-.06.98Zm-3.88-9.7a3.858,3.858,0,0,1,2.72,1.06,4.423,4.423,0,0,1,1.12,3.18c0,2.64-1.5,4.34-3.84,4.34a3.305,3.305,0,0,1-2.68-1.2,5.23,5.23,0,0,1-.82-3.12C385.22-8.22,386.54-9.82,388.72-9.82Zm17.26-1.08a9.184,9.184,0,0,0-1.78-.18,3.986,3.986,0,0,0-2.4.7,3.507,3.507,0,0,0-1.1,1.22,5.82,5.82,0,0,0,.02-.6V-10.9h-1.66a14.5,14.5,0,0,1,.14,2.26v6.26a18.254,18.254,0,0,1-.14,2.26h1.8a15.646,15.646,0,0,1-.14-2.24V-6.44a3.292,3.292,0,0,1,.74-2,2.952,2.952,0,0,1,2.46-1.22,4.744,4.744,0,0,1,1.62.3ZM419.1-5.28c-.04-.54-.12-1.32-.14-1.54a4.728,4.728,0,0,0-4.84-4.34c-3,0-4.96,2.24-4.96,5.66,0,3.46,1.98,5.66,5.12,5.66a5,5,0,0,0,3.62-1.4A4.782,4.782,0,0,0,419-2.9l-1.4-.56a3.269,3.269,0,0,1-3.3,2.34,3.346,3.346,0,0,1-2.82-1.36,4.532,4.532,0,0,1-.8-2.8Zm-8.36-1.26a4.184,4.184,0,0,1,.5-1.62,3.131,3.131,0,0,1,2.84-1.74,3.244,3.244,0,0,1,2.36.9,3.651,3.651,0,0,1,1.06,2.46Zm19.8,6.42h1.62a12.789,12.789,0,0,1-.16-2.2V-7.94c0-2.16-1.36-3.28-4-3.28a5.036,5.036,0,0,0-3.52,1.14,3.958,3.958,0,0,0-1.12,1.78l1.56.34a2.81,2.81,0,0,1,.62-1.16,3.28,3.28,0,0,1,2.48-.86c1.66,0,2.52.7,2.52,2.06v1.16a16.329,16.329,0,0,0-4.6.52c-1.86.52-2.86,1.68-2.86,3.28,0,1.9,1.34,3.04,3.54,3.04a5.9,5.9,0,0,0,2.08-.4,5.212,5.212,0,0,0,1.84-1.22Zm0-4.16a2.18,2.18,0,0,1-.62,1.72,4.522,4.522,0,0,1-3.2,1.42c-1.3,0-2.12-.7-2.12-1.8A2.124,2.124,0,0,1,426.12-5a12.353,12.353,0,0,1,4.42-.58Zm8.14,4.16a15.935,15.935,0,0,1-.14-2.26V-6.3a4.459,4.459,0,0,1,.66-2,3.13,3.13,0,0,1,2.62-1.52c1.44,0,2.24.96,2.24,2.72v4.72a14.329,14.329,0,0,1-.14,2.26h1.8a13.888,13.888,0,0,1-.14-2.24V-6.3a4.3,4.3,0,0,1,.66-2.06,3,3,0,0,1,2.52-1.46c1.6,0,2.3.82,2.3,2.72v4.72a12.143,12.143,0,0,1-.14,2.26h1.8a14.053,14.053,0,0,1-.14-2.24V-7.3a4.071,4.071,0,0,0-.68-2.6,3.456,3.456,0,0,0-2.92-1.22,3.928,3.928,0,0,0-3.7,2.18,2.628,2.628,0,0,0-.62-1.16,3.231,3.231,0,0,0-2.58-1.02,3.886,3.886,0,0,0-2.82,1.04,4.115,4.115,0,0,0-.76,1c.02-.38.04-.62.04-.72v-1.1h-1.62a14.5,14.5,0,0,1,.14,2.26v6.26a15.019,15.019,0,0,1-.14,2.26Zm27.5-15.2v1.78h1.94v-1.78Zm.06,4.42a14.665,14.665,0,0,1,.14,2.26v6.26a17.354,17.354,0,0,1-.14,2.26h1.8a15.745,15.745,0,0,1-.14-2.26V-8.64a14.325,14.325,0,0,1,.14-2.26Zm7.98-2.98a15.174,15.174,0,0,1,.14,2.22v.76h-.8a9.067,9.067,0,0,1-1.8-.12V-9.5a13.382,13.382,0,0,1,1.8-.12h.8v7.16a2.538,2.538,0,0,0,.56,1.92,2.738,2.738,0,0,0,1.96.62,5.382,5.382,0,0,0,2.26-.46l-.44-1.4a2.771,2.771,0,0,1-1.58.52,1.354,1.354,0,0,1-.98-.34c-.18-.18-.26-.48-.26-1.06V-9.62h.96a12.011,12.011,0,0,1,2.04.12v-1.52a12.292,12.292,0,0,1-2.04.12h-.96v-.76a14.458,14.458,0,0,1,.14-2.22ZM484.78-2.1h-2V-.12h1.16c0,1.24-.14,1.54-.96,1.92l.54.66c1.02-.62,1.26-1.1,1.26-2.58ZM501.8-.44l-.92,2.2a1.549,1.549,0,0,1-1.48,1.1,2.63,2.63,0,0,1-1.22-.34L497.76,4a7.7,7.7,0,0,0,1.64.22,2.725,2.725,0,0,0,2.82-1.86L506.7-8.56c.52-1.26.86-2.04.98-2.34h-1.86a9.453,9.453,0,0,1-.66,2.12l-2.58,6.72-2.9-6.72A11.078,11.078,0,0,1,499-10.9h-1.96c.2.36.2.36,1.1,2.34Zm14.4.58c3.22,0,5.3-2.24,5.3-5.66,0-3.44-2.06-5.64-5.32-5.64s-5.34,2.2-5.34,5.66S512.92.14,516.2.14Zm.02-10.04c2.3,0,3.74,1.68,3.74,4.38s-1.44,4.36-3.78,4.36-3.8-1.66-3.8-4.38C512.38-8.24,513.84-9.9,516.22-9.9ZM533.7-.12h1.66a13.51,13.51,0,0,1-.16-2.26V-8.64a15.02,15.02,0,0,1,.14-2.26h-1.78a15.563,15.563,0,0,1,.14,2.26v3.86a4.672,4.672,0,0,1-.92,2A3.44,3.44,0,0,1,529.9-1.2c-1.56,0-2.42-1-2.42-2.78V-8.64a15.371,15.371,0,0,1,.14-2.26h-1.8a14.394,14.394,0,0,1,.14,2.24v4.94a4.373,4.373,0,0,0,.56,2.32,3.645,3.645,0,0,0,3.2,1.48,4.368,4.368,0,0,0,4.04-2.38,6.144,6.144,0,0,0-.06.88Zm24.28-7.94a5.4,5.4,0,0,0-.7-1.28,4.533,4.533,0,0,0-3.86-1.84c-3.06,0-5.06,2.26-5.06,5.72,0,3.42,2.02,5.6,5.16,5.6a4.606,4.606,0,0,0,3.78-1.68,5.483,5.483,0,0,0,.82-1.54l-1.5-.4a3.249,3.249,0,0,1-.44,1.02,2.956,2.956,0,0,1-2.6,1.28c-2.24,0-3.68-1.68-3.68-4.32,0-2.68,1.4-4.4,3.6-4.4a3.02,3.02,0,0,1,3.02,2.3ZM569.54-.12h1.62a12.789,12.789,0,0,1-.16-2.2V-7.94c0-2.16-1.36-3.28-4-3.28a5.036,5.036,0,0,0-3.52,1.14,3.957,3.957,0,0,0-1.12,1.78l1.56.34a2.811,2.811,0,0,1,.62-1.16,3.28,3.28,0,0,1,2.48-.86c1.66,0,2.52.7,2.52,2.06v1.16a16.329,16.329,0,0,0-4.6.52c-1.86.52-2.86,1.68-2.86,3.28,0,1.9,1.34,3.04,3.54,3.04a5.9,5.9,0,0,0,2.08-.4,5.212,5.212,0,0,0,1.84-1.22Zm0-4.16a2.18,2.18,0,0,1-.62,1.72,4.521,4.521,0,0,1-3.2,1.42c-1.3,0-2.12-.7-2.12-1.8A2.124,2.124,0,0,1,565.12-5a12.352,12.352,0,0,1,4.42-.58Zm8.18,4.16a16.133,16.133,0,0,1-.14-2.26V-6.24a4.284,4.284,0,0,1,.92-1.98,3.484,3.484,0,0,1,2.86-1.58c1.58,0,2.44.96,2.44,2.76v4.66a16.123,16.123,0,0,1-.14,2.26h1.8a13.562,13.562,0,0,1-.14-2.24V-7.3a4.079,4.079,0,0,0-.56-2.3,3.611,3.611,0,0,0-3.2-1.5,4.344,4.344,0,0,0-4.04,2.42,5.36,5.36,0,0,0,.06-.86V-10.9h-1.66a13.51,13.51,0,0,1,.16,2.26v6.26a12.76,12.76,0,0,1-.16,2.26Zm29.68,0H609a15.587,15.587,0,0,1-.14-2.3V-13.06a16.329,16.329,0,0,1,.14-2.26h-1.76a15.656,15.656,0,0,1,.14,2.28v2.68a6.052,6.052,0,0,0,.06,1.06l.02.3a4.591,4.591,0,0,0-4.1-2.12c-3,0-4.92,2.18-4.92,5.6,0,3.48,1.88,5.6,4.96,5.6a4.46,4.46,0,0,0,4.06-2.16,8.854,8.854,0,0,0-.06.98Zm-3.88-9.7a3.858,3.858,0,0,1,2.72,1.06,4.423,4.423,0,0,1,1.12,3.18c0,2.64-1.5,4.34-3.84,4.34a3.305,3.305,0,0,1-2.68-1.2,5.23,5.23,0,0,1-.82-3.12C600.02-8.22,601.34-9.82,603.52-9.82ZM618.72.14c3.22,0,5.3-2.24,5.3-5.66,0-3.44-2.06-5.64-5.32-5.64s-5.34,2.2-5.34,5.66S615.44.14,618.72.14Zm.02-10.04c2.3,0,3.74,1.68,3.74,4.38s-1.44,4.36-3.78,4.36-3.8-1.66-3.8-4.38C614.9-8.24,616.36-9.9,618.74-9.9ZM637-15.32v1.78h1.94v-1.78Zm.06,4.42a14.67,14.67,0,0,1,.14,2.26v6.26a17.36,17.36,0,0,1-.14,2.26h1.8a15.741,15.741,0,0,1-.14-2.26V-8.64a14.322,14.322,0,0,1,.14-2.26Zm7.98-2.98a15.17,15.17,0,0,1,.14,2.22v.76h-.8a9.068,9.068,0,0,1-1.8-.12V-9.5a13.383,13.383,0,0,1,1.8-.12h.8v7.16a2.538,2.538,0,0,0,.56,1.92,2.739,2.739,0,0,0,1.96.62,5.382,5.382,0,0,0,2.26-.46l-.44-1.4a2.771,2.771,0,0,1-1.58.52,1.355,1.355,0,0,1-.98-.34c-.18-.18-.26-.48-.26-1.06V-9.62h.96a12.012,12.012,0,0,1,2.04.12v-1.52a12.292,12.292,0,0,1-2.04.12h-.96v-.76a14.463,14.463,0,0,1,.14-2.22ZM653.6-2.1V-.12h1.98V-2.1Zm11.68-13.22h-2v1.98h1.16c0,1.26-.14,1.56-.96,1.92l.54.66c1.02-.6,1.26-1.1,1.26-2.58Zm-2.88,0h-2v1.98h1.16c0,1.26-.14,1.56-.96,1.92l.54.66c1.02-.6,1.26-1.1,1.26-2.58Z" transform="translate(348 513)" fill="#1a1919"/>
    <path id="パス_7" data-name="パス 7" d="M1.7-2.44A14.066,14.066,0,0,1,1.54-.06c.7-.04,1.24-.06,2.2-.06H7.12A6.7,6.7,0,0,0,11.98-1.9a8.084,8.084,0,0,0,2.14-5.92c0-4.78-2.54-7.5-7-7.5H3.74c-.96,0-1.5-.02-2.2-.06A14.4,14.4,0,0,1,1.7-13.1Zm1.56.92v-12.4h3.9a4.929,4.929,0,0,1,3.76,1.36A6.462,6.462,0,0,1,12.5-7.82a6.812,6.812,0,0,1-1.68,4.88A4.885,4.885,0,0,1,7.08-1.52ZM28.02-5.28c-.04-.54-.12-1.32-.14-1.54a4.728,4.728,0,0,0-4.84-4.34c-3,0-4.96,2.24-4.96,5.66,0,3.46,1.98,5.66,5.12,5.66a5,5,0,0,0,3.62-1.4,4.782,4.782,0,0,0,1.1-1.66l-1.4-.56a3.269,3.269,0,0,1-3.3,2.34A3.346,3.346,0,0,1,20.4-2.48a4.531,4.531,0,0,1-.8-2.8ZM19.66-6.54a4.184,4.184,0,0,1,.5-1.62A3.131,3.131,0,0,1,23-9.9a3.244,3.244,0,0,1,2.36.9,3.651,3.651,0,0,1,1.06,2.46ZM39.46-.12h1.62a12.788,12.788,0,0,1-.16-2.2V-7.94c0-2.16-1.36-3.28-4-3.28a5.036,5.036,0,0,0-3.52,1.14A3.958,3.958,0,0,0,32.28-8.3l1.56.34a2.811,2.811,0,0,1,.62-1.16,3.28,3.28,0,0,1,2.48-.86c1.66,0,2.52.7,2.52,2.06v1.16a16.329,16.329,0,0,0-4.6.52C33-5.72,32-4.56,32-2.96,32-1.06,33.34.08,35.54.08a5.9,5.9,0,0,0,2.08-.4,5.212,5.212,0,0,0,1.84-1.22Zm0-4.16a2.18,2.18,0,0,1-.62,1.72,4.522,4.522,0,0,1-3.2,1.42c-1.3,0-2.12-.7-2.12-1.8A2.124,2.124,0,0,1,35.04-5a12.352,12.352,0,0,1,4.42-.58Zm13.3-6.62a9.184,9.184,0,0,0-1.78-.18,3.986,3.986,0,0,0-2.4.7,3.507,3.507,0,0,0-1.1,1.22,5.816,5.816,0,0,0,.02-.6V-10.9H45.84a14.5,14.5,0,0,1,.14,2.26v6.26a18.249,18.249,0,0,1-.14,2.26h1.8a15.647,15.647,0,0,1-.14-2.24V-6.44a3.292,3.292,0,0,1,.74-2A2.952,2.952,0,0,1,50.7-9.66a4.744,4.744,0,0,1,1.62.3ZM64.24-5.1a11.809,11.809,0,0,1,1.82-.1h2.38a11.774,11.774,0,0,1,1.84.1V-6.78a11.619,11.619,0,0,1-1.84.1H66.06a11.5,11.5,0,0,1-1.82-.1ZM96.88-.12A15.657,15.657,0,0,1,97.4-2.1l3.18-10.94a15.425,15.425,0,0,1,.78-2.28h-2a12.215,12.215,0,0,1-.38,2.08L96.62-4.6l-.54,2.3c-.4-1.56-.48-1.86-.6-2.3L92.8-13.36a13.811,13.811,0,0,1-.48-1.96h-1.5a13.876,13.876,0,0,1-.46,1.96L87.68-4.58c-.16.54-.4,1.48-.6,2.28-.28-1.22-.4-1.78-.54-2.26l-2.36-8.68a10.777,10.777,0,0,1-.38-2.08H81.78a12.955,12.955,0,0,1,.82,2.28L85.76-2.1A14.606,14.606,0,0,1,86.3-.12h1.54a15.589,15.589,0,0,1,.52-1.92l2.62-8.64c.12-.4.38-1.44.52-1.96a1.585,1.585,0,0,1,.08-.34,20.391,20.391,0,0,0,.58,2.3L94.8-2.04a18.574,18.574,0,0,1,.52,1.92Zm15.28,0h1.62a12.789,12.789,0,0,1-.16-2.2V-7.94c0-2.16-1.36-3.28-4-3.28a5.036,5.036,0,0,0-3.52,1.14,3.958,3.958,0,0,0-1.12,1.78l1.56.34a2.811,2.811,0,0,1,.62-1.16,3.28,3.28,0,0,1,2.48-.86c1.66,0,2.52.7,2.52,2.06v1.16a16.329,16.329,0,0,0-4.6.52c-1.86.52-2.86,1.68-2.86,3.28,0,1.9,1.34,3.04,3.54,3.04a5.9,5.9,0,0,0,2.08-.4,5.212,5.212,0,0,0,1.84-1.22Zm0-4.16a2.18,2.18,0,0,1-.62,1.72,4.522,4.522,0,0,1-3.2,1.42c-1.3,0-2.12-.7-2.12-1.8A2.124,2.124,0,0,1,107.74-5a12.352,12.352,0,0,1,4.42-.58Zm6.38-11.04a14.39,14.39,0,0,1,.14,2.24V-2.36a15.093,15.093,0,0,1-.14,2.24h1.8a15.838,15.838,0,0,1-.14-2.24v-10.7a14.5,14.5,0,0,1,.14-2.26Zm7.9,1.44a15.175,15.175,0,0,1,.14,2.22v.76h-.8a9.067,9.067,0,0,1-1.8-.12V-9.5a13.382,13.382,0,0,1,1.8-.12h.8v7.16a2.538,2.538,0,0,0,.56,1.92,2.738,2.738,0,0,0,1.96.62,5.382,5.382,0,0,0,2.26-.46l-.44-1.4a2.771,2.771,0,0,1-1.58.52,1.354,1.354,0,0,1-.98-.34c-.18-.18-.26-.48-.26-1.06V-9.62h.96a12.012,12.012,0,0,1,2.04.12v-1.52a12.292,12.292,0,0,1-2.04.12h-.96v-.76a14.458,14.458,0,0,1,.14-2.22ZM152.14-.12h1.6a15.585,15.585,0,0,1-.14-2.3V-13.06a16.326,16.326,0,0,1,.14-2.26h-1.76a15.663,15.663,0,0,1,.14,2.28v2.68a6.052,6.052,0,0,0,.06,1.06l.02.3a4.591,4.591,0,0,0-4.1-2.12c-3,0-4.92,2.18-4.92,5.6,0,3.48,1.88,5.6,4.96,5.6a4.46,4.46,0,0,0,4.06-2.16,8.847,8.847,0,0,0-.06.98Zm-3.88-9.7a3.858,3.858,0,0,1,2.72,1.06,4.423,4.423,0,0,1,1.12,3.18c0,2.64-1.5,4.34-3.84,4.34a3.305,3.305,0,0,1-2.68-1.2,5.23,5.23,0,0,1-.82-3.12C144.76-8.22,146.08-9.82,148.26-9.82Zm10.32-5.5v1.78h1.94v-1.78Zm.06,4.42a14.667,14.667,0,0,1,.14,2.26v6.26a17.357,17.357,0,0,1-.14,2.26h1.8a15.748,15.748,0,0,1-.14-2.26V-8.64a14.327,14.327,0,0,1,.14-2.26Zm6.14,7.86a3.95,3.95,0,0,0,.64,1.58A4.693,4.693,0,0,0,169.38.1c2.74,0,4.44-1.24,4.44-3.24a2.64,2.64,0,0,0-.96-2.08,7.552,7.552,0,0,0-3.18-1.14,7.457,7.457,0,0,1-2.22-.68,1.229,1.229,0,0,1-.68-1.1c0-1.06,1.04-1.8,2.5-1.8a2.734,2.734,0,0,1,2.08.76,1.82,1.82,0,0,1,.5,1.06l1.58-.26a3.228,3.228,0,0,0-1.06-1.82,4.607,4.607,0,0,0-3.14-.96,4.382,4.382,0,0,0-3.12,1.04,2.675,2.675,0,0,0-.86,1.94,2.459,2.459,0,0,0,1.08,2.1,7.623,7.623,0,0,0,2.96,1.04,6.431,6.431,0,0,1,2.36.72,1.35,1.35,0,0,1,.62,1.24c0,1.18-1.1,1.92-2.84,1.92a3.386,3.386,0,0,1-2.32-.7,2.243,2.243,0,0,1-.7-1.46ZM179.9-.12a16.128,16.128,0,0,1-.14-2.26V-6.24a4.284,4.284,0,0,1,.92-1.98,3.484,3.484,0,0,1,2.86-1.58c1.58,0,2.44.96,2.44,2.76v4.66a16.13,16.13,0,0,1-.14,2.26h1.8a13.567,13.567,0,0,1-.14-2.24V-7.3a4.079,4.079,0,0,0-.56-2.3,3.611,3.611,0,0,0-3.2-1.5,4.344,4.344,0,0,0-4.04,2.42,5.36,5.36,0,0,0,.06-.86V-10.9H178.1a13.51,13.51,0,0,1,.16,2.26v6.26a12.761,12.761,0,0,1-.16,2.26Zm22-5.16c-.04-.54-.12-1.32-.14-1.54a4.728,4.728,0,0,0-4.84-4.34c-3,0-4.96,2.24-4.96,5.66,0,3.46,1.98,5.66,5.12,5.66a5,5,0,0,0,3.62-1.4,4.782,4.782,0,0,0,1.1-1.66l-1.4-.56a3.269,3.269,0,0,1-3.3,2.34,3.346,3.346,0,0,1-2.82-1.36,4.531,4.531,0,0,1-.8-2.8Zm-8.36-1.26a4.184,4.184,0,0,1,.5-1.62,3.131,3.131,0,0,1,2.84-1.74,3.244,3.244,0,0,1,2.36.9,3.651,3.651,0,0,1,1.06,2.46Zm16.22,6.1-.92,2.2a1.549,1.549,0,0,1-1.48,1.1,2.63,2.63,0,0,1-1.22-.34L205.72,4a7.7,7.7,0,0,0,1.64.22,2.725,2.725,0,0,0,2.82-1.86l4.48-10.92c.52-1.26.86-2.04.98-2.34h-1.86a9.452,9.452,0,0,1-.66,2.12l-2.58,6.72-2.9-6.72a11.078,11.078,0,0,1-.68-2.12H205c.2.36.2.36,1.1,2.34ZM227.1-5.1a11.809,11.809,0,0,1,1.82-.1h2.38a11.774,11.774,0,0,1,1.84.1V-6.78a11.619,11.619,0,0,1-1.84.1h-2.38a11.5,11.5,0,0,1-1.82-.1Z" transform="translate(566 560)" fill="#1a1919"/>
    <path id="パス_6" data-name="パス 6" d="M31.88.48a41.977,41.977,0,0,1-2.04-4.72L20.96-27.32a26.486,26.486,0,0,1-1.36-4.04H12.64a23.692,23.692,0,0,1-1.28,4.04L2.56-4.24A43.723,43.723,0,0,1,.44.48H7a19.949,19.949,0,0,1,1.2-4.2L9.8-8.08H22.6l1.6,4.36A26.9,26.9,0,0,1,25.32.48ZM21.16-12.68H11.24L15.4-24.52c.12-.36.12-.36.76-2.24.44,1.32.56,1.8.72,2.24ZM53-32a13.864,13.864,0,0,0-10.32,4c-2.96,2.88-4.56,7.32-4.56,12.48,0,10.16,5.84,16.68,14.92,16.68S68-5.4,68-15.52c0-5.2-1.56-9.56-4.48-12.48C60.8-30.72,57.4-32,53-32Zm.12,28.4a8.637,8.637,0,0,1-6.2-2.44c-2.08-2.08-3.24-5.44-3.24-9.44,0-7.24,3.64-11.8,9.4-11.8a8.609,8.609,0,0,1,6.16,2.44c2.04,2.04,3.16,5.28,3.16,9.32C62.4-8.16,58.84-3.6,53.12-3.6ZM76.68-31.36A29.884,29.884,0,0,1,77-26.2V-4.68A30.18,30.18,0,0,1,76.68.48h6.08a30.181,30.181,0,0,1-.32-5.16V-26.2a29.885,29.885,0,0,1,.32-5.16ZM142.4.48a32.992,32.992,0,0,1-.32-5.16v-7.88l9.24-14.68c.68-1.12,2.2-3.32,2.76-4.12h-6.96a17.478,17.478,0,0,1-1.88,3.96l-5.88,9.8-5.8-9.84a16.2,16.2,0,0,1-1.92-3.92h-7c1.28,1.84,2.2,3.16,2.8,4.12l9.24,14.64v7.92a38.272,38.272,0,0,1-.32,5.16Zm43.6,0a41.977,41.977,0,0,1-2.04-4.72l-8.88-23.08a26.485,26.485,0,0,1-1.36-4.04h-6.96a23.692,23.692,0,0,1-1.28,4.04l-8.8,23.08A43.725,43.725,0,0,1,154.56.48h6.56a19.95,19.95,0,0,1,1.2-4.2l1.6-4.36h12.8l1.6,4.36a26.9,26.9,0,0,1,1.12,4.2ZM175.28-12.68h-9.92l4.16-11.84c.12-.36.12-.36.76-2.24.44,1.32.56,1.8.72,2.24ZM212.52.48a32.569,32.569,0,0,1,1.76-5.32l6-14.08a48.813,48.813,0,0,0,1.84-5.84c-.04.6-.16,2.64-.32,6.12V-5.36a37.192,37.192,0,0,1-.32,5.84h5.6a34.678,34.678,0,0,1-.32-5.84V-25.44a41.425,41.425,0,0,1,.32-5.92h-7.36a22.166,22.166,0,0,1-1.44,4.76L210.2-6.76,202.08-26.6a27.679,27.679,0,0,1-1.48-4.76h-7.32a39.678,39.678,0,0,1,.32,5.92V-5.36a37.516,37.516,0,0,1-.32,5.84h5.6a36.546,36.546,0,0,1-.32-5.84V-18.48c0-.88-.16-4.16-.32-6.28a44.516,44.516,0,0,0,2.04,6.12l5.76,13.72A27.23,27.23,0,0,1,207.8.48Zm53.28,0a41.979,41.979,0,0,1-2.04-4.72l-8.88-23.08a26.484,26.484,0,0,1-1.36-4.04h-6.96a23.692,23.692,0,0,1-1.28,4.04l-8.8,23.08A43.725,43.725,0,0,1,234.36.48h6.56a19.949,19.949,0,0,1,1.2-4.2l1.6-4.36h12.8l1.6,4.36a26.9,26.9,0,0,1,1.12,4.2ZM255.08-12.68h-9.92l4.16-11.84c.12-.36.12-.36.76-2.24.44,1.32.56,1.8.72,2.24Zm44.08.76a33.535,33.535,0,0,1,.28-4.96c-1.72.12-2.88.16-4.72.16h-2.08a29.852,29.852,0,0,1-4.8-.24v5.16a21.9,21.9,0,0,1,4.08-.24h2.16v6.52a11.937,11.937,0,0,1-6.8,1.8c-3.16,0-5.32-.84-6.96-2.76-1.8-2.12-2.72-5.24-2.72-9.36,0-4.08.96-7.04,2.96-9.12a8.452,8.452,0,0,1,6.08-2.44c4.12,0,6.04,1.28,7.36,4.92l5.48-1.48a11.275,11.275,0,0,0-2.96-4.76,13.064,13.064,0,0,0-9.2-3.44,15.168,15.168,0,0,0-8.88,2.36c-4.16,2.8-6.4,7.68-6.4,14.04,0,4.96,1.32,9.28,3.76,12.16C278.32-.56,282.16,1,287.16,1a23.687,23.687,0,0,0,5.88-.76,25.366,25.366,0,0,0,6.4-2.76,33.056,33.056,0,0,1-.28-5.2Zm31.08-19.44a32.557,32.557,0,0,1,.32,5.48V-11.8c0,5.44-2.76,8.28-8.12,8.28-5.4,0-8.2-2.84-8.2-8.24V-25.88a31.368,31.368,0,0,1,.32-5.48H308.6a32.861,32.861,0,0,1,.32,5.48v14.12c0,4,.96,7,3,9.2,2.2,2.4,5.88,3.76,10.32,3.76,8.72,0,13.64-4.64,13.64-12.92v-14.2a32.326,32.326,0,0,1,.32-5.44Zm37.08,21.12A8.171,8.171,0,0,1,366-6.56a7.638,7.638,0,0,1-6.48,2.96c-5.6,0-9.12-4.56-9.12-11.88,0-7.36,3.44-11.8,9.12-11.8a7.243,7.243,0,0,1,5.84,2.48,8.335,8.335,0,0,1,1.72,3.44l5.56-1.28a14.225,14.225,0,0,0-1.24-3.08,12.28,12.28,0,0,0-4.24-4.36A14.135,14.135,0,0,0,359.48-32a13.9,13.9,0,0,0-10,3.8c-3,3-4.68,7.64-4.68,12.92,0,5.12,1.56,9.64,4.36,12.56,2.44,2.52,5.92,3.84,10.28,3.84,4.8,0,8.64-1.56,10.92-4.36a15.283,15.283,0,0,0,2.68-6Zm35.64-21.12a30.178,30.178,0,0,1,.32,5.16v7.68H387.2v-7.72a32.783,32.783,0,0,1,.32-5.12h-5.96a30.48,30.48,0,0,1,.32,5.16V-4.68a30.181,30.181,0,0,1-.32,5.16h5.96a31.4,31.4,0,0,1-.32-5.16v-9.04h16.08v9.04a30.477,30.477,0,0,1-.32,5.16h5.96a31.7,31.7,0,0,1-.32-5.16V-26.24a31.18,31.18,0,0,1,.32-5.12Zm15.64,0a29.885,29.885,0,0,1,.32,5.16V-4.68A30.181,30.181,0,0,1,418.6.48h6.08a30.178,30.178,0,0,1-.32-5.16V-26.2a29.882,29.882,0,0,1,.32-5.16Z" transform="translate(470.57 381)" fill="#1a1919"/>
  </g>
</svg>
