<svg xmlns="http://www.w3.org/2000/svg" width="236.822" height="21.163" viewBox="0 0 236.822 21.163">
  <g id="グループ_4" data-name="グループ 4" transform="translate(-564.574 -242.62)">
    <path id="パス_10" data-name="パス 10" d="M1.7-2.44A14.066,14.066,0,0,1,1.54-.06c.7-.04,1.24-.06,2.2-.06H7.12A6.7,6.7,0,0,0,11.98-1.9a8.084,8.084,0,0,0,2.14-5.92c0-4.78-2.54-7.5-7-7.5H3.74c-.96,0-1.5-.02-2.2-.06A14.4,14.4,0,0,1,1.7-13.1Zm1.56.92v-12.4h3.9a4.929,4.929,0,0,1,3.76,1.36A6.462,6.462,0,0,1,12.5-7.82a6.812,6.812,0,0,1-1.68,4.88A4.885,4.885,0,0,1,7.08-1.52ZM28.02-5.28c-.04-.54-.12-1.32-.14-1.54a4.728,4.728,0,0,0-4.84-4.34c-3,0-4.96,2.24-4.96,5.66,0,3.46,1.98,5.66,5.12,5.66a5,5,0,0,0,3.62-1.4,4.782,4.782,0,0,0,1.1-1.66l-1.4-.56a3.269,3.269,0,0,1-3.3,2.34A3.346,3.346,0,0,1,20.4-2.48a4.531,4.531,0,0,1-.8-2.8ZM19.66-6.54a4.184,4.184,0,0,1,.5-1.62A3.131,3.131,0,0,1,23-9.9a3.244,3.244,0,0,1,2.36.9,3.651,3.651,0,0,1,1.06,2.46ZM32.3,2.18a5.477,5.477,0,0,0,4.54,2A5.392,5.392,0,0,0,41,2.66,6.049,6.049,0,0,0,42.16-1.5V-8.66a15.275,15.275,0,0,1,.14-2.24H40.7v1.14c0,.26.02.42.04.76a4.135,4.135,0,0,0-3.84-2.1c-3.1,0-5.06,2.16-5.06,5.56,0,3.34,1.92,5.44,4.94,5.44a4.643,4.643,0,0,0,3.1-1.04,3.63,3.63,0,0,0,.86-1.1A11.091,11.091,0,0,1,40.38.72a3.368,3.368,0,0,1-3.48,2.2,3.825,3.825,0,0,1-2.68-.94,2.81,2.81,0,0,1-.64-.7Zm1.1-7.72c0-2.66,1.36-4.3,3.58-4.3,2.24,0,3.68,1.62,3.68,4.14,0,2.6-1.52,4.34-3.8,4.34C34.72-1.36,33.4-2.94,33.4-5.54Zm13.74-9.78v1.78h1.94v-1.78Zm.06,4.42a14.666,14.666,0,0,1,.14,2.26v6.26A17.355,17.355,0,0,1,47.2-.12H49a15.747,15.747,0,0,1-.14-2.26V-8.64A14.327,14.327,0,0,1,49-10.9ZM55.72-.12a16.129,16.129,0,0,1-.14-2.26V-6.24a4.284,4.284,0,0,1,.92-1.98A3.484,3.484,0,0,1,59.36-9.8c1.58,0,2.44.96,2.44,2.76v4.66a16.129,16.129,0,0,1-.14,2.26h1.8a13.566,13.566,0,0,1-.14-2.24V-7.3a4.079,4.079,0,0,0-.56-2.3,3.611,3.611,0,0,0-3.2-1.5,4.344,4.344,0,0,0-4.04,2.42,5.36,5.36,0,0,0,.06-.86V-10.9H53.92a13.509,13.509,0,0,1,.16,2.26v6.26a12.76,12.76,0,0,1-.16,2.26ZM78.7,4.08a15.2,15.2,0,0,1-.14-2.26V-.66a11.164,11.164,0,0,0-.08-1.4A4.766,4.766,0,0,0,82.6.06c3,0,4.92-2.18,4.92-5.58,0-3.48-1.88-5.58-4.96-5.58a4.574,4.574,0,0,0-4.08,2.16,6.585,6.585,0,0,0,.06-.82V-10.9h-1.6a15.766,15.766,0,0,1,.14,2.3V1.84a16.43,16.43,0,0,1-.14,2.24Zm3.76-5.32A3.942,3.942,0,0,1,79.72-2.3a4.517,4.517,0,0,1-1.14-3.2c0-2.58,1.56-4.3,3.86-4.3,2.24,0,3.52,1.56,3.52,4.28C85.96-2.86,84.64-1.24,82.46-1.24ZM98.8-10.9a9.184,9.184,0,0,0-1.78-.18,3.986,3.986,0,0,0-2.4.7,3.507,3.507,0,0,0-1.1,1.22,5.815,5.815,0,0,0,.02-.6V-10.9H91.88a14.5,14.5,0,0,1,.14,2.26v6.26a18.25,18.25,0,0,1-.14,2.26h1.8a15.648,15.648,0,0,1-.14-2.24V-6.44a3.292,3.292,0,0,1,.74-2,2.952,2.952,0,0,1,2.46-1.22,4.744,4.744,0,0,1,1.62.3ZM107.34.14c3.22,0,5.3-2.24,5.3-5.66,0-3.44-2.06-5.64-5.32-5.64s-5.34,2.2-5.34,5.66S104.06.14,107.34.14Zm.02-10.04c2.3,0,3.74,1.68,3.74,4.38s-1.44,4.36-3.78,4.36-3.8-1.66-3.8-4.38C103.52-8.24,104.98-9.9,107.36-9.9ZM125.44-.12h1.6a15.583,15.583,0,0,1-.14-2.3V-13.06a16.325,16.325,0,0,1,.14-2.26h-1.76a15.662,15.662,0,0,1,.14,2.28v2.68a6.052,6.052,0,0,0,.06,1.06l.02.3a4.591,4.591,0,0,0-4.1-2.12c-3,0-4.92,2.18-4.92,5.6,0,3.48,1.88,5.6,4.96,5.6a4.46,4.46,0,0,0,4.06-2.16,8.849,8.849,0,0,0-.06.98Zm-3.88-9.7a3.858,3.858,0,0,1,2.72,1.06,4.423,4.423,0,0,1,1.12,3.18c0,2.64-1.5,4.34-3.84,4.34a3.305,3.305,0,0,1-2.68-1.2,5.23,5.23,0,0,1-.82-3.12C118.06-8.22,119.38-9.82,121.56-9.82Zm18.2,9.7h1.66a13.509,13.509,0,0,1-.16-2.26V-8.64a15.015,15.015,0,0,1,.14-2.26h-1.78a15.559,15.559,0,0,1,.14,2.26v3.86a4.671,4.671,0,0,1-.92,2,3.44,3.44,0,0,1-2.88,1.58c-1.56,0-2.42-1-2.42-2.78V-8.64a15.377,15.377,0,0,1,.14-2.26h-1.8a14.389,14.389,0,0,1,.14,2.24v4.94a4.373,4.373,0,0,0,.56,2.32,3.645,3.645,0,0,0,3.2,1.48,4.368,4.368,0,0,0,4.04-2.38,6.144,6.144,0,0,0-.06.88Zm15.62-7.94a5.4,5.4,0,0,0-.7-1.28,4.533,4.533,0,0,0-3.86-1.84c-3.06,0-5.06,2.26-5.06,5.72,0,3.42,2.02,5.6,5.16,5.6a4.606,4.606,0,0,0,3.78-1.68,5.484,5.484,0,0,0,.82-1.54l-1.5-.4a3.249,3.249,0,0,1-.44,1.02,2.956,2.956,0,0,1-2.6,1.28c-2.24,0-3.68-1.68-3.68-4.32,0-2.68,1.4-4.4,3.6-4.4a3.02,3.02,0,0,1,3.02,2.3Zm5.7-5.82a15.174,15.174,0,0,1,.14,2.22v.76h-.8a9.067,9.067,0,0,1-1.8-.12V-9.5a13.382,13.382,0,0,1,1.8-.12h.8v7.16a2.538,2.538,0,0,0,.56,1.92,2.738,2.738,0,0,0,1.96.62A5.382,5.382,0,0,0,166-.38l-.44-1.4a2.771,2.771,0,0,1-1.58.52A1.354,1.354,0,0,1,163-1.6c-.18-.18-.26-.48-.26-1.06V-9.62h.96a12.011,12.011,0,0,1,2.04.12v-1.52a12.292,12.292,0,0,1-2.04.12h-.96v-.76a14.46,14.46,0,0,1,.14-2.22Zm8,10.84a3.95,3.95,0,0,0,.64,1.58A4.693,4.693,0,0,0,173.68.1c2.74,0,4.44-1.24,4.44-3.24a2.64,2.64,0,0,0-.96-2.08,7.552,7.552,0,0,0-3.18-1.14,7.457,7.457,0,0,1-2.22-.68,1.229,1.229,0,0,1-.68-1.1c0-1.06,1.04-1.8,2.5-1.8a2.734,2.734,0,0,1,2.08.76,1.82,1.82,0,0,1,.5,1.06l1.58-.26a3.228,3.228,0,0,0-1.06-1.82,4.607,4.607,0,0,0-3.14-.96,4.382,4.382,0,0,0-3.12,1.04,2.675,2.675,0,0,0-.86,1.94,2.459,2.459,0,0,0,1.08,2.1,7.623,7.623,0,0,0,2.96,1.04,6.431,6.431,0,0,1,2.36.72,1.35,1.35,0,0,1,.62,1.24c0,1.18-1.1,1.92-2.84,1.92a3.386,3.386,0,0,1-2.32-.7,2.243,2.243,0,0,1-.7-1.46Z" transform="translate(595.857 258)" fill="#1a1919"/>
    <path id="パス_12" data-name="パス 12" d="M14.717,18.539-1.783,1.752l3.566-3.5,16.5,16.786Z" transform="translate(566.357 245.214)" fill="#707070"/>
    <path id="パス_11" data-name="パス 11" d="M14.717,18.539-1.783,1.752l3.566-3.5,16.5,16.786Z" transform="translate(799.643 245.5) rotate(90)" fill="#707070"/>
  </g>
</svg>
